<svg id="a" data-name="Layer 1" xmlns="http://www.w3.org/2000/svg" viewBox="0 0 954.6 337.9"><path style="fill:none;stroke:#8b8d8e;stroke-linecap:round;stroke-width:1.2px" d="M147.4 86.33H.6M147.4 86.33l-87.61-9.06M147.4 86.33 61.18 68.31M147.4 86.33 77.48 64M147.4 86.33l-67.26-29.4M147.4 86.33 83.52 50.17M147.4 86.33 99.54 52.3M147.4 86.33l-44.11-38.77M147.4 86.33l-29.91-32.32M147.4 86.33 120.97 51.1M147.4 86.33l-22.67-37.76M147.4 86.33l-18.67-39.89M147.4 86.33l-14.47-41.6M147.4 86.33 127.17.6M147.4 86.33l-9.42-72.8M147.4 86.33l-1.51-58.71M147.4 86.33l5.67-73.19M147.4 86.33l10.53-57.77"/><circle cx="46.9" cy="75.94" r="4.86" style="fill:#a30b37;stroke:#fff"/><circle cx="538.2" cy="59.35" r="6.6" style="fill:#a30b37;stroke:#fff"/><path d="M186.84 58.68h-5.55v4.54h6.44v1.38h-8.13V51.8h8.04v1.38h-6.35v4.12h5.55v1.38ZM195.45 64.6c-.09-.19-.17-.52-.23-1-.76.79-1.66 1.18-2.71 1.18-.94 0-1.71-.27-2.31-.8-.6-.53-.9-1.2-.9-2.02 0-.99.38-1.76 1.13-2.31.75-.55 1.81-.82 3.18-.82h1.58v-.75c0-.57-.17-1.02-.51-1.36s-.84-.51-1.5-.51c-.58 0-1.07.15-1.46.44s-.59.65-.59 1.06h-1.63c0-.47.17-.93.5-1.38s.79-.79 1.37-1.05 1.21-.39 1.9-.39c1.1 0 1.95.27 2.58.82s.94 1.3.97 2.26v4.38c0 .87.11 1.57.33 2.08v.14h-1.71Zm-2.7-1.24c.51 0 .99-.13 1.45-.4s.79-.61.99-1.03v-1.95h-1.27c-1.99 0-2.99.58-2.99 1.75 0 .51.17.91.51 1.2s.78.43 1.31.43ZM203.19 63.45c.58 0 1.09-.18 1.52-.53s.67-.79.72-1.32h1.54c-.03.54-.22 1.06-.56 1.56s-.81.88-1.38 1.18-1.19.44-1.83.44c-1.29 0-2.32-.43-3.09-1.3-.76-.86-1.15-2.05-1.15-3.55v-.27c0-.93.17-1.75.51-2.47s.83-1.28 1.46-1.68 1.39-.6 2.25-.6c1.07 0 1.95.32 2.66.96.71.64 1.08 1.47 1.13 2.49h-1.54c-.05-.62-.28-1.12-.7-1.52-.42-.4-.94-.59-1.55-.59-.83 0-1.47.3-1.92.89s-.68 1.45-.68 2.58v.31c0 1.1.23 1.94.68 2.53s1.1.89 1.93.89ZM210.42 56.24c.72-.88 1.66-1.33 2.81-1.33 2.01 0 3.02 1.13 3.04 3.4v6.28h-1.63V58.3c0-.69-.16-1.19-.47-1.52-.31-.33-.79-.49-1.44-.49-.53 0-.99.14-1.39.42s-.71.65-.93 1.11v6.78h-1.63V51.1h1.63v5.14ZM224.93 64.6h-1.63V51.1h1.63v13.5ZM227.54 52.56c0-.26.08-.49.24-.67s.4-.27.72-.27.56.09.72.27.25.4.25.67-.08.48-.25.66-.4.26-.72.26-.56-.09-.72-.26-.24-.4-.24-.66Zm1.76 12.03h-1.63v-9.51h1.63v9.51ZM233.44 55.09l.05 1.2c.73-.91 1.68-1.37 2.85-1.37 2.01 0 3.02 1.13 3.04 3.4v6.28h-1.63v-6.29c0-.69-.16-1.19-.47-1.52-.31-.33-.79-.49-1.44-.49-.53 0-.99.14-1.39.42s-.71.65-.93 1.11v6.78h-1.63V55.1h1.54ZM245.78 64.77c-1.29 0-2.34-.42-3.15-1.27s-1.21-1.98-1.21-3.4v-.3c0-.94.18-1.79.54-2.53.36-.74.86-1.32 1.51-1.74s1.35-.63 2.11-.63c1.24 0 2.2.41 2.88 1.22s1.03 1.98 1.03 3.5v.68h-6.44c.02.94.3 1.69.82 2.27.52.58 1.19.87 2 .87.57 0 1.06-.12 1.46-.35s.75-.54 1.05-.93l.99.77c-.8 1.22-1.99 1.84-3.59 1.84Zm-.2-8.53c-.66 0-1.21.24-1.65.72s-.72 1.15-.83 2.01h4.76v-.12c-.05-.83-.27-1.47-.67-1.92s-.94-.68-1.62-.68ZM260.42 56.55c-.25-.04-.51-.06-.8-.06-1.07 0-1.79.45-2.17 1.36v6.75h-1.63v-9.51h1.58l.03 1.1c.53-.85 1.29-1.27 2.27-1.27.32 0 .56.04.72.12v1.51ZM265.86 64.77c-1.29 0-2.34-.42-3.15-1.27s-1.21-1.98-1.21-3.4v-.3c0-.94.18-1.79.54-2.53.36-.74.86-1.32 1.51-1.74s1.35-.63 2.11-.63c1.24 0 2.2.41 2.88 1.22s1.03 1.98 1.03 3.5v.68h-6.44c.02.94.3 1.69.82 2.27.52.58 1.19.87 2 .87.57 0 1.06-.12 1.46-.35s.75-.54 1.05-.93l.99.77c-.8 1.22-1.99 1.84-3.59 1.84Zm-.2-8.53c-.66 0-1.21.24-1.65.72s-.72 1.15-.83 2.01h4.76v-.12c-.05-.83-.27-1.47-.67-1.92s-.94-.68-1.62-.68ZM279.48 59.95c0 1.45-.33 2.61-.99 3.5s-1.56 1.33-2.69 1.33-2.06-.37-2.72-1.1v4.58h-1.63V55.09h1.49l.08 1.05c.66-.82 1.58-1.23 2.76-1.23s2.05.43 2.71 1.29 1 2.06 1 3.59v.15Zm-1.63-.18c0-1.07-.23-1.92-.69-2.54s-1.08-.93-1.88-.93c-.98 0-1.72.44-2.21 1.31v4.54c.49.87 1.23 1.3 2.23 1.3.78 0 1.4-.31 1.86-.93s.69-1.54.69-2.76ZM286.15 56.55c-.25-.04-.51-.06-.8-.06-1.07 0-1.79.45-2.17 1.36v6.75h-1.63v-9.51h1.58l.03 1.1c.53-.85 1.29-1.27 2.27-1.27.32 0 .56.04.72.12v1.51ZM291.59 64.77c-1.29 0-2.34-.42-3.15-1.27s-1.21-1.98-1.21-3.4v-.3c0-.94.18-1.79.54-2.53.36-.74.86-1.32 1.51-1.74s1.35-.63 2.11-.63c1.24 0 2.2.41 2.88 1.22s1.03 1.98 1.03 3.5v.68h-6.44c.02.94.3 1.69.82 2.27.52.58 1.19.87 2 .87.57 0 1.06-.12 1.46-.35s.75-.54 1.05-.93l.99.77c-.8 1.22-1.99 1.84-3.59 1.84Zm-.2-8.53c-.66 0-1.21.24-1.65.72s-.72 1.15-.83 2.01h4.76v-.12c-.05-.83-.27-1.47-.67-1.92s-.94-.68-1.62-.68ZM302.71 62.07c0-.44-.17-.78-.5-1.02-.33-.24-.91-.45-1.73-.63s-1.48-.39-1.96-.63c-.48-.25-.84-.54-1.07-.88-.23-.34-.35-.74-.35-1.21 0-.78.33-1.44.99-1.98.66-.54 1.5-.81 2.53-.81 1.08 0 1.95.28 2.62.83s1.01 1.27 1.01 2.14h-1.63c0-.45-.19-.83-.57-1.15-.38-.32-.85-.48-1.43-.48s-1.05.13-1.39.39-.5.59-.5 1.01c0 .39.16.69.47.89s.87.39 1.68.57c.81.18 1.47.4 1.97.65s.88.56 1.12.91c.24.35.36.79.36 1.3 0 .85-.34 1.53-1.02 2.04s-1.56.77-2.65.77c-.76 0-1.44-.13-2.02-.4s-1.04-.65-1.38-1.13c-.33-.48-.5-1.01-.5-1.57h1.63c.03.54.25.98.65 1.3s.95.48 1.61.48c.62 0 1.11-.12 1.48-.37s.56-.58.56-1ZM310.4 64.77c-1.29 0-2.34-.42-3.15-1.27s-1.21-1.98-1.21-3.4v-.3c0-.94.18-1.79.54-2.53.36-.74.86-1.32 1.51-1.74s1.35-.63 2.11-.63c1.24 0 2.2.41 2.88 1.22s1.03 1.98 1.03 3.5v.68h-6.44c.02.94.3 1.69.82 2.27.52.58 1.19.87 2 .87.57 0 1.06-.12 1.46-.35s.75-.54 1.05-.93l.99.77c-.8 1.22-1.99 1.84-3.59 1.84Zm-.2-8.53c-.66 0-1.21.24-1.65.72s-.72 1.15-.83 2.01h4.76v-.12c-.05-.83-.27-1.47-.67-1.92s-.94-.68-1.62-.68ZM317.53 55.09l.05 1.2c.73-.91 1.68-1.37 2.85-1.37 2.01 0 3.02 1.13 3.04 3.4v6.28h-1.63v-6.29c0-.69-.16-1.19-.47-1.52-.31-.33-.79-.49-1.44-.49-.53 0-.99.14-1.39.42s-.71.65-.93 1.11v6.78h-1.63V55.1h1.54ZM328.13 52.78v2.3h1.78v1.26h-1.78v5.9c0 .38.08.67.24.86.16.19.43.29.81.29.19 0 .45-.04.77-.11v1.31c-.43.12-.84.17-1.25.17-.73 0-1.27-.22-1.64-.66s-.55-1.06-.55-1.87v-5.9h-1.73v-1.26h1.73v-2.3h1.63ZM342.13 64.6c-.09-.19-.17-.52-.23-1-.76.79-1.66 1.18-2.71 1.18-.94 0-1.71-.27-2.31-.8-.6-.53-.9-1.2-.9-2.02 0-.99.38-1.76 1.13-2.31.75-.55 1.81-.82 3.18-.82h1.58v-.75c0-.57-.17-1.02-.51-1.36s-.84-.51-1.5-.51c-.58 0-1.07.15-1.46.44s-.59.65-.59 1.06h-1.63c0-.47.17-.93.5-1.38s.79-.79 1.37-1.05 1.21-.39 1.9-.39c1.1 0 1.95.27 2.58.82s.94 1.3.97 2.26v4.38c0 .87.11 1.57.33 2.08v.14h-1.71Zm-2.7-1.24c.51 0 .99-.13 1.45-.4s.79-.61.99-1.03v-1.95h-1.27c-1.99 0-2.99.58-2.99 1.75 0 .51.17.91.51 1.2s.78.43 1.31.43ZM356.05 62.07c0-.44-.17-.78-.5-1.02-.33-.24-.91-.45-1.73-.63s-1.48-.39-1.96-.63c-.48-.25-.84-.54-1.07-.88-.23-.34-.35-.74-.35-1.21 0-.78.33-1.44.99-1.98.66-.54 1.5-.81 2.53-.81 1.08 0 1.95.28 2.62.83s1.01 1.27 1.01 2.14h-1.63c0-.45-.19-.83-.57-1.15-.38-.32-.85-.48-1.43-.48s-1.05.13-1.39.39-.5.59-.5 1.01c0 .39.16.69.47.89s.87.39 1.68.57c.81.18 1.47.4 1.97.65s.88.56 1.12.91c.24.35.36.79.36 1.3 0 .85-.34 1.53-1.02 2.04s-1.56.77-2.65.77c-.76 0-1.44-.13-2.02-.4s-1.04-.65-1.38-1.13c-.33-.48-.5-1.01-.5-1.57h1.63c.03.54.25.98.65 1.3s.95.48 1.61.48c.62 0 1.11-.12 1.48-.37s.56-.58.56-1ZM362 52.78v2.3h1.78v1.26H362v5.9c0 .38.08.67.24.86.16.19.43.29.81.29.19 0 .45-.04.77-.11v1.31c-.43.12-.84.17-1.25.17-.73 0-1.27-.22-1.64-.66s-.55-1.06-.55-1.87v-5.9h-1.73v-1.26h1.73v-2.3h1.63ZM370.27 56.55c-.25-.04-.51-.06-.8-.06-1.07 0-1.79.45-2.17 1.36v6.75h-1.63v-9.51h1.58l.03 1.1c.53-.85 1.29-1.27 2.27-1.27.32 0 .56.04.72.12v1.51ZM375.71 64.77c-1.29 0-2.34-.42-3.15-1.27s-1.21-1.98-1.21-3.4v-.3c0-.94.18-1.79.54-2.53.36-.74.86-1.32 1.51-1.74s1.35-.63 2.11-.63c1.24 0 2.2.41 2.88 1.22s1.03 1.98 1.03 3.5v.68h-6.44c.02.94.3 1.69.82 2.27.52.58 1.19.87 2 .87.57 0 1.06-.12 1.46-.35s.75-.54 1.05-.93l.99.77c-.8 1.22-1.99 1.84-3.59 1.84Zm-.2-8.53c-.66 0-1.21.24-1.65.72s-.72 1.15-.83 2.01h4.76v-.12c-.05-.83-.27-1.47-.67-1.92s-.94-.68-1.62-.68ZM385.24 64.77c-1.29 0-2.34-.42-3.15-1.27s-1.21-1.98-1.21-3.4v-.3c0-.94.18-1.79.54-2.53.36-.74.86-1.32 1.51-1.74s1.35-.63 2.11-.63c1.24 0 2.2.41 2.88 1.22s1.03 1.98 1.03 3.5v.68h-6.44c.02.94.3 1.69.82 2.27.52.58 1.19.87 2 .87.57 0 1.06-.12 1.46-.35s.75-.54 1.05-.93l.99.77c-.8 1.22-1.99 1.84-3.59 1.84Zm-.2-8.53c-.66 0-1.21.24-1.65.72s-.72 1.15-.83 2.01h4.76v-.12c-.05-.83-.27-1.47-.67-1.92s-.94-.68-1.62-.68ZM393.04 52.78v2.3h1.78v1.26h-1.78v5.9c0 .38.08.67.24.86.16.19.43.29.81.29.19 0 .45-.04.77-.11v1.31c-.43.12-.84.17-1.25.17-.73 0-1.27-.22-1.64-.66s-.55-1.06-.55-1.87v-5.9h-1.73v-1.26h1.73v-2.3h1.63ZM402.71 55.09l.05 1.2c.73-.91 1.68-1.37 2.85-1.37 2.01 0 3.02 1.13 3.04 3.4v6.28h-1.63v-6.29c0-.69-.16-1.19-.47-1.52-.31-.33-.79-.49-1.44-.49-.53 0-.99.14-1.39.42s-.71.65-.93 1.11v6.78h-1.63V55.1h1.54ZM416.97 64.6c-.09-.19-.17-.52-.23-1-.76.79-1.66 1.18-2.71 1.18-.94 0-1.71-.27-2.31-.8-.6-.53-.9-1.2-.9-2.02 0-.99.38-1.76 1.13-2.31.75-.55 1.81-.82 3.18-.82h1.58v-.75c0-.57-.17-1.02-.51-1.36s-.84-.51-1.5-.51c-.58 0-1.07.15-1.46.44s-.59.65-.59 1.06h-1.63c0-.47.17-.93.5-1.38s.79-.79 1.37-1.05 1.21-.39 1.9-.39c1.1 0 1.95.27 2.58.82s.94 1.3.97 2.26v4.38c0 .87.11 1.57.33 2.08v.14h-1.71Zm-2.7-1.24c.51 0 .99-.13 1.45-.4s.79-.61.99-1.03v-1.95h-1.27c-1.99 0-2.99.58-2.99 1.75 0 .51.17.91.51 1.2s.78.43 1.31.43ZM422.42 55.09l.04 1.05c.7-.82 1.64-1.23 2.82-1.23 1.33 0 2.24.51 2.72 1.53.32-.46.73-.83 1.24-1.11.51-.28 1.11-.42 1.8-.42 2.09 0 3.15 1.1 3.18 3.31v6.37h-1.63v-6.28c0-.68-.16-1.19-.47-1.52s-.83-.51-1.56-.51c-.6 0-1.1.18-1.5.54s-.63.85-.69 1.45v6.31h-1.63v-6.23c0-1.38-.68-2.07-2.03-2.07-1.07 0-1.8.45-2.19 1.36v6.94h-1.63v-9.51h1.54ZM440.61 64.77c-1.29 0-2.34-.42-3.15-1.27s-1.21-1.98-1.21-3.4v-.3c0-.94.18-1.79.54-2.53.36-.74.86-1.32 1.51-1.74s1.35-.63 2.11-.63c1.24 0 2.2.41 2.88 1.22s1.03 1.98 1.03 3.5v.68h-6.44c.02.94.3 1.69.82 2.27.52.58 1.19.87 2 .87.57 0 1.06-.12 1.46-.35s.75-.54 1.05-.93l.99.77c-.8 1.22-1.99 1.84-3.59 1.84Zm-.2-8.53c-.66 0-1.21.24-1.65.72s-.72 1.15-.83 2.01h4.76v-.12c-.05-.83-.27-1.47-.67-1.92s-.94-.68-1.62-.68ZM185.22 85.26c-.63.74-1.56 1.12-2.79 1.12-1.01 0-1.79-.29-2.32-.88-.53-.59-.8-1.46-.8-2.62v-6.19h1.63v6.14c0 1.44.59 2.16 1.76 2.16 1.24 0 2.07-.46 2.48-1.39v-6.92h1.63v9.51h-1.55l-.04-.94ZM194.81 83.67c0-.44-.17-.78-.5-1.02-.33-.24-.91-.45-1.73-.63s-1.48-.39-1.96-.63c-.48-.25-.84-.54-1.07-.88-.23-.34-.35-.74-.35-1.21 0-.78.33-1.44.99-1.98.66-.54 1.5-.81 2.53-.81 1.08 0 1.95.28 2.62.83s1.01 1.27 1.01 2.14h-1.63c0-.45-.19-.83-.57-1.15-.38-.32-.85-.48-1.43-.48s-1.05.13-1.39.39-.5.59-.5 1.01c0 .39.16.69.47.89s.87.39 1.68.57c.81.18 1.47.4 1.97.65s.88.56 1.12.91c.24.36.36.79.36 1.3 0 .85-.34 1.53-1.02 2.04-.68.51-1.56.77-2.65.77-.76 0-1.44-.13-2.02-.4s-1.04-.65-1.38-1.13c-.33-.48-.5-1.01-.5-1.57h1.63c.03.54.25.98.65 1.3.41.32.95.48 1.61.48.62 0 1.11-.12 1.48-.37.37-.25.56-.58.56-1ZM202.5 86.37c-1.29 0-2.34-.42-3.15-1.27s-1.21-1.98-1.21-3.4v-.3c0-.94.18-1.79.54-2.53.36-.74.86-1.32 1.51-1.74s1.35-.63 2.11-.63c1.24 0 2.2.41 2.88 1.22s1.03 1.98 1.03 3.5v.68h-6.44c.02.94.3 1.7.82 2.27.52.58 1.19.87 2 .87.57 0 1.06-.12 1.46-.35s.75-.54 1.05-.93l.99.77c-.8 1.22-1.99 1.84-3.59 1.84Zm-.2-8.53c-.66 0-1.21.24-1.65.72s-.72 1.15-.83 2.01h4.76v-.12c-.05-.83-.27-1.47-.67-1.92s-.94-.68-1.62-.68ZM207.7 81.36c0-1.46.35-2.63 1.04-3.52s1.6-1.33 2.72-1.33 2 .38 2.65 1.14v-4.96h1.63v13.5h-1.49l-.08-1.02c-.65.8-1.56 1.2-2.72 1.2s-2-.45-2.69-1.35c-.7-.9-1.04-2.08-1.04-3.53v-.12Zm1.63.18c0 1.08.22 1.92.67 2.53s1.06.91 1.85.91c1.03 0 1.78-.46 2.26-1.39v-4.37c-.49-.9-1.23-1.34-2.24-1.34-.8 0-1.42.31-1.86.92s-.67 1.53-.67 2.73ZM222.71 74.16c0-.26.08-.49.24-.67s.4-.27.72-.27.56.09.72.27.25.4.25.67-.08.48-.25.66-.4.26-.72.26-.56-.09-.72-.26-.24-.4-.24-.66Zm1.76 12.03h-1.63v-9.51h1.63v9.51ZM228.6 76.69l.05 1.2c.73-.91 1.68-1.37 2.85-1.37 2.01 0 3.02 1.13 3.04 3.4v6.28h-1.63v-6.29c0-.69-.16-1.19-.47-1.52-.31-.33-.79-.49-1.44-.49-.53 0-.99.14-1.39.42s-.71.65-.93 1.11v6.78h-1.63V76.7h1.54ZM247.33 86.2c-.09-.19-.17-.52-.23-1-.76.79-1.66 1.18-2.71 1.18-.94 0-1.71-.26-2.31-.79-.6-.53-.9-1.2-.9-2.02 0-.99.38-1.76 1.13-2.31.75-.55 1.81-.82 3.18-.82h1.58v-.75c0-.57-.17-1.02-.51-1.36s-.84-.51-1.5-.51c-.58 0-1.07.15-1.46.44s-.59.65-.59 1.06h-1.63c0-.47.17-.93.5-1.38s.79-.79 1.37-1.05 1.21-.39 1.9-.39c1.1 0 1.95.27 2.58.82s.94 1.3.97 2.26v4.38c0 .87.11 1.57.33 2.08v.14h-1.71Zm-2.7-1.24c.51 0 .99-.13 1.45-.4s.79-.61.99-1.03v-1.95h-1.27c-1.99 0-2.99.58-2.99 1.75 0 .51.17.91.51 1.2s.78.43 1.31.43ZM253.45 74.38v2.3h1.78v1.26h-1.78v5.91c0 .38.08.67.24.86s.43.29.81.29c.19 0 .45-.04.77-.11v1.31c-.43.12-.84.17-1.25.17-.73 0-1.27-.22-1.64-.66s-.55-1.06-.55-1.87v-5.9h-1.73v-1.26h1.73v-2.3h1.63ZM263.35 86.2h-1.63V72.7h1.63v13.5ZM269.9 86.37c-1.29 0-2.34-.42-3.15-1.27s-1.21-1.98-1.21-3.4v-.3c0-.94.18-1.79.54-2.53.36-.74.86-1.32 1.51-1.74s1.35-.63 2.11-.63c1.24 0 2.2.41 2.88 1.22s1.03 1.98 1.03 3.5v.68h-6.44c.02.94.3 1.7.82 2.27.52.58 1.19.87 2 .87.57 0 1.06-.12 1.46-.35s.75-.54 1.05-.93l.99.77c-.8 1.22-1.99 1.84-3.59 1.84Zm-.2-8.53c-.66 0-1.21.24-1.65.72s-.72 1.15-.83 2.01h4.76v-.12c-.05-.83-.27-1.47-.67-1.92s-.94-.68-1.62-.68ZM281.36 86.2c-.09-.19-.17-.52-.23-1-.76.79-1.66 1.18-2.71 1.18-.94 0-1.71-.26-2.31-.79-.6-.53-.9-1.2-.9-2.02 0-.99.38-1.76 1.13-2.31.75-.55 1.81-.82 3.18-.82h1.58v-.75c0-.57-.17-1.02-.51-1.36s-.84-.51-1.5-.51c-.58 0-1.07.15-1.46.44s-.59.65-.59 1.06h-1.63c0-.47.17-.93.5-1.38s.79-.79 1.37-1.05 1.21-.39 1.9-.39c1.1 0 1.95.27 2.58.82s.94 1.3.97 2.26v4.38c0 .87.11 1.57.33 2.08v.14h-1.71Zm-2.7-1.24c.51 0 .99-.13 1.45-.4s.79-.61.99-1.03v-1.95h-1.27c-1.99 0-2.99.58-2.99 1.75 0 .51.17.91.51 1.2s.78.43 1.31.43ZM290.81 83.67c0-.44-.17-.78-.5-1.02-.33-.24-.91-.45-1.73-.63s-1.48-.39-1.96-.63c-.48-.25-.84-.54-1.07-.88-.23-.34-.35-.74-.35-1.21 0-.78.33-1.44.99-1.98.66-.54 1.5-.81 2.53-.81 1.08 0 1.95.28 2.62.83s1.01 1.27 1.01 2.14h-1.63c0-.45-.19-.83-.57-1.15-.38-.32-.85-.48-1.43-.48s-1.05.13-1.39.39-.5.59-.5 1.01c0 .39.16.69.47.89s.87.39 1.68.57c.81.18 1.47.4 1.97.65s.88.56 1.12.91c.24.36.36.79.36 1.3 0 .85-.34 1.53-1.02 2.04-.68.51-1.56.77-2.65.77-.76 0-1.44-.13-2.02-.4s-1.04-.65-1.38-1.13c-.33-.48-.5-1.01-.5-1.57h1.63c.03.54.25.98.65 1.3.41.32.95.48 1.61.48.62 0 1.11-.12 1.48-.37.37-.25.56-.58.56-1ZM296.76 74.38v2.3h1.78v1.26h-1.78v5.91c0 .38.08.67.24.86s.43.29.81.29c.19 0 .45-.04.77-.11v1.31c-.43.12-.84.17-1.25.17-.73 0-1.27-.22-1.64-.66s-.55-1.06-.55-1.87v-5.9h-1.73v-1.26h1.73v-2.3h1.63ZM307.09 79.01h1.22c.77-.01 1.37-.21 1.81-.61s.66-.92.66-1.59c0-1.5-.75-2.25-2.24-2.25-.7 0-1.26.2-1.68.6-.42.4-.63.93-.63 1.6h-1.63c0-1.01.37-1.86 1.11-2.53.74-.67 1.68-1.01 2.83-1.01 1.21 0 2.15.32 2.84.96s1.03 1.53 1.03 2.66c0 .56-.18 1.1-.54 1.62-.36.52-.85.91-1.47 1.17.7.22 1.25.59 1.63 1.11.38.52.58 1.15.58 1.89 0 1.15-.38 2.06-1.12 2.73s-1.73 1.01-2.93 1.01-2.18-.33-2.93-.98-1.13-1.51-1.13-2.58h1.63c0 .67.22 1.21.66 1.62s1.03.61 1.77.61c.79 0 1.39-.21 1.8-.62s.62-1 .62-1.77-.23-1.32-.69-1.71-1.12-.6-1.98-.62h-1.22v-1.33ZM320.26 86.2v-8.25h-1.5v-1.26h1.5v-.98c0-1.02.27-1.81.82-2.36s1.32-.83 2.31-.83c.38 0 .75.05 1.12.15l-.09 1.31c-.28-.05-.57-.08-.88-.08-.53 0-.93.15-1.22.46s-.43.75-.43 1.33v1h2.03v1.26h-2.03v8.25h-1.63ZM325.28 81.35c0-.93.18-1.77.55-2.51.37-.74.88-1.32 1.53-1.72.65-.4 1.4-.61 2.24-.61 1.29 0 2.34.45 3.14 1.34.8.9 1.2 2.09 1.2 3.58v.11c0 .93-.18 1.76-.53 2.49-.36.74-.86 1.31-1.52 1.72-.66.41-1.42.62-2.27.62-1.29 0-2.33-.45-3.13-1.34-.8-.9-1.2-2.08-1.2-3.56v-.11Zm1.63.19c0 1.05.24 1.9.73 2.54s1.14.96 1.96.96 1.48-.32 1.97-.97c.49-.65.73-1.55.73-2.72 0-1.04-.25-1.89-.74-2.54s-1.15-.97-1.97-.97-1.45.32-1.94.96-.74 1.55-.74 2.74ZM340.57 78.15c-.25-.04-.51-.06-.8-.06-1.07 0-1.79.45-2.17 1.36v6.75h-1.63v-9.51h1.58l.03 1.1c.53-.85 1.29-1.27 2.27-1.27.32 0 .56.04.72.12v1.51ZM346.01 86.37c-1.29 0-2.34-.42-3.15-1.27s-1.21-1.98-1.21-3.4v-.3c0-.94.18-1.79.54-2.53.36-.74.86-1.32 1.51-1.74s1.35-.63 2.11-.63c1.24 0 2.2.41 2.88 1.22s1.03 1.98 1.03 3.5v.68h-6.44c.02.94.3 1.7.82 2.27.52.58 1.19.87 2 .87.57 0 1.06-.12 1.46-.35s.75-.54 1.05-.93l.99.77c-.8 1.22-1.99 1.84-3.59 1.84Zm-.2-8.53c-.66 0-1.21.24-1.65.72s-.72 1.15-.83 2.01h4.76v-.12c-.05-.83-.27-1.47-.67-1.92s-.94-.68-1.62-.68ZM351.61 74.16c0-.26.08-.49.24-.67s.4-.27.72-.27.56.09.72.27.25.4.25.67-.08.48-.25.66-.4.26-.72.26-.56-.09-.72-.26-.24-.4-.24-.66Zm1.76 12.03h-1.63v-9.51h1.63v9.51ZM355.58 81.36c0-1.48.34-2.66 1.03-3.54s1.59-1.31 2.72-1.31 2.07.41 2.72 1.23l.08-1.05h1.49v9.28c0 1.23-.37 2.2-1.09 2.91-.73.71-1.71 1.06-2.94 1.06-.69 0-1.36-.15-2.01-.44s-1.16-.69-1.5-1.2l.84-.98c.7.86 1.55 1.29 2.56 1.29.79 0 1.41-.22 1.85-.67s.66-1.07.66-1.88v-.82c-.65.75-1.54 1.12-2.66 1.12s-2.01-.45-2.7-1.34c-.69-.9-1.03-2.12-1.03-3.67Zm1.63.18c0 1.07.22 1.92.66 2.53.44.61 1.05.92 1.85.92 1.03 0 1.78-.47 2.26-1.4v-4.34c-.5-.91-1.25-1.36-2.24-1.36-.79 0-1.41.31-1.85.92s-.67 1.53-.67 2.73ZM367.6 76.69l.05 1.2c.73-.91 1.68-1.37 2.85-1.37 2.01 0 3.02 1.13 3.04 3.4v6.28h-1.63v-6.29c0-.69-.16-1.19-.47-1.52-.31-.33-.79-.49-1.44-.49-.53 0-.99.14-1.39.42s-.71.65-.93 1.11v6.78h-1.63V76.7h1.54ZM384.27 85.05c.58 0 1.09-.18 1.52-.53s.67-.79.72-1.32h1.54c-.03.54-.22 1.06-.56 1.56s-.81.88-1.38 1.18-1.19.44-1.83.44c-1.29 0-2.32-.43-3.09-1.3-.76-.86-1.15-2.05-1.15-3.55v-.27c0-.93.17-1.75.51-2.47s.83-1.28 1.46-1.68 1.39-.6 2.25-.6c1.07 0 1.95.32 2.66.96.71.64 1.08 1.47 1.13 2.49h-1.54c-.05-.62-.28-1.12-.7-1.52-.42-.4-.94-.59-1.55-.59-.83 0-1.47.3-1.92.89s-.68 1.45-.68 2.58v.31c0 1.1.23 1.94.68 2.53s1.1.89 1.93.89ZM389.88 74.16c0-.26.08-.49.24-.67s.4-.27.72-.27.56.09.72.27.25.4.25.67-.08.48-.25.66-.4.26-.72.26-.56-.09-.72-.26-.24-.4-.24-.66Zm1.76 12.03h-1.63v-9.51h1.63v9.51ZM396.45 74.38v2.3h1.78v1.26h-1.78v5.91c0 .38.08.67.24.86s.43.29.81.29c.19 0 .45-.04.77-.11v1.31c-.43.12-.84.17-1.25.17-.73 0-1.27-.22-1.64-.66s-.55-1.06-.55-1.87v-5.9h-1.73v-1.26h1.73v-2.3h1.63ZM400.13 74.16c0-.26.08-.49.24-.67s.4-.27.72-.27.56.09.72.27.25.4.25.67-.08.48-.25.66-.4.26-.72.26-.56-.09-.72-.26-.24-.4-.24-.66Zm1.76 12.03h-1.63v-9.51h1.63v9.51ZM408.44 86.37c-1.29 0-2.34-.42-3.15-1.27s-1.21-1.98-1.21-3.4v-.3c0-.94.18-1.79.54-2.53.36-.74.86-1.32 1.51-1.74s1.35-.63 2.11-.63c1.24 0 2.2.41 2.88 1.22s1.03 1.98 1.03 3.5v.68h-6.44c.02.94.3 1.7.82 2.27.52.58 1.19.87 2 .87.57 0 1.06-.12 1.46-.35s.75-.54 1.05-.93l.99.77c-.8 1.22-1.99 1.84-3.59 1.84Zm-.2-8.53c-.66 0-1.21.24-1.65.72s-.72 1.15-.83 2.01h4.76v-.12c-.05-.83-.27-1.47-.67-1.92s-.94-.68-1.62-.68ZM419.56 83.67c0-.44-.17-.78-.5-1.02-.33-.24-.91-.45-1.73-.63s-1.48-.39-1.96-.63c-.48-.25-.84-.54-1.07-.88-.23-.34-.35-.74-.35-1.21 0-.78.33-1.44.99-1.98.66-.54 1.5-.81 2.53-.81 1.08 0 1.95.28 2.62.83s1.01 1.27 1.01 2.14h-1.63c0-.45-.19-.83-.57-1.15-.38-.32-.85-.48-1.43-.48s-1.05.13-1.39.39-.5.59-.5 1.01c0 .39.16.69.47.89s.87.39 1.68.57c.81.18 1.47.4 1.97.65s.88.56 1.12.91c.24.36.36.79.36 1.3 0 .85-.34 1.53-1.02 2.04-.68.51-1.56.77-2.65.77-.76 0-1.44-.13-2.02-.4s-1.04-.65-1.38-1.13c-.33-.48-.5-1.01-.5-1.57h1.63c.03.54.25.98.65 1.3.41.32.95.48 1.61.48.62 0 1.11-.12 1.48-.37.37-.25.56-.58.56-1ZM423.34 85.34c0-.28.08-.52.25-.7.17-.19.42-.28.75-.28s.59.09.76.28.26.42.26.7-.09.5-.26.68-.43.27-.76.27-.58-.09-.75-.27a.953.953 0 0 1-.25-.68ZM559.64 59.89h-3.01v5.18h-1.7v-12.8h4.24c1.44 0 2.55.33 3.33.98s1.17 1.61 1.17 2.87c0 .8-.22 1.49-.65 2.08-.43.59-1.03 1.03-1.8 1.33l3.01 5.43v.11h-1.81l-2.78-5.18Zm-3.01-1.38h2.59c.84 0 1.5-.22 2-.65.49-.43.74-1.02.74-1.74 0-.79-.24-1.4-.71-1.82-.47-.42-1.15-.64-2.04-.64h-2.58v4.86ZM569.72 65.24c-1.29 0-2.34-.42-3.15-1.27s-1.21-1.98-1.21-3.4v-.3c0-.94.18-1.79.54-2.53.36-.74.86-1.32 1.51-1.74s1.35-.63 2.11-.63c1.24 0 2.2.41 2.88 1.22s1.03 1.98 1.03 3.5v.68h-6.44c.02.94.3 1.69.82 2.27.52.58 1.19.87 2 .87.57 0 1.06-.12 1.46-.35s.75-.54 1.05-.93l.99.77c-.8 1.22-1.99 1.84-3.59 1.84Zm-.2-8.53c-.66 0-1.21.24-1.65.72s-.72 1.15-.83 2.01h4.76v-.12c-.05-.83-.27-1.47-.67-1.92s-.94-.68-1.62-.68ZM574.92 60.23c0-1.46.35-2.63 1.04-3.52s1.6-1.33 2.72-1.33 2 .38 2.65 1.14v-4.96h1.63v13.5h-1.49l-.08-1.02c-.65.8-1.56 1.2-2.72 1.2s-2-.45-2.69-1.35c-.7-.9-1.04-2.08-1.04-3.53v-.12Zm1.63.18c0 1.08.22 1.92.67 2.53s1.06.91 1.85.91c1.03 0 1.78-.46 2.26-1.39v-4.37c-.49-.9-1.23-1.34-2.24-1.34-.8 0-1.42.31-1.86.92s-.67 1.53-.67 2.73ZM589.52 60.23c0-1.46.35-2.63 1.04-3.52s1.6-1.33 2.72-1.33 2 .38 2.65 1.14v-4.96h1.63v13.5h-1.49l-.08-1.02c-.65.8-1.56 1.2-2.72 1.2s-2-.45-2.69-1.35c-.7-.9-1.04-2.08-1.04-3.53v-.12Zm1.63.18c0 1.08.22 1.92.67 2.53s1.06.91 1.85.91c1.03 0 1.78-.46 2.26-1.39v-4.37c-.49-.9-1.23-1.34-2.24-1.34-.8 0-1.42.31-1.86.92s-.67 1.53-.67 2.73ZM599.64 60.22c0-.93.18-1.77.55-2.51.37-.74.88-1.32 1.53-1.72.65-.4 1.4-.61 2.24-.61 1.29 0 2.34.45 3.14 1.34.8.9 1.2 2.09 1.2 3.58v.11c0 .93-.18 1.76-.53 2.49-.36.74-.86 1.31-1.52 1.72-.66.41-1.42.62-2.27.62-1.29 0-2.33-.45-3.13-1.34-.8-.9-1.2-2.08-1.2-3.56v-.11Zm1.63.19c0 1.05.24 1.9.73 2.54s1.14.96 1.96.96 1.48-.32 1.97-.97.73-1.55.73-2.72c0-1.04-.25-1.89-.74-2.54s-1.15-.97-1.97-.97-1.45.32-1.94.96-.74 1.55-.74 2.74ZM612.54 53.26v2.3h1.78v1.26h-1.78v5.9c0 .38.08.67.24.86.16.19.43.29.81.29.19 0 .45-.04.77-.11v1.31c-.43.12-.84.17-1.25.17-.73 0-1.27-.22-1.64-.66s-.55-1.06-.55-1.87v-5.9h-1.73v-1.26h1.73v-2.3h1.63ZM621.75 62.55c0-.44-.17-.78-.5-1.02-.33-.24-.91-.45-1.73-.63s-1.48-.39-1.96-.63c-.48-.25-.84-.54-1.07-.88-.23-.34-.35-.74-.35-1.21 0-.78.33-1.44.99-1.98.66-.54 1.5-.81 2.53-.81 1.08 0 1.95.28 2.62.83s1.01 1.27 1.01 2.14h-1.63c0-.45-.19-.83-.57-1.15-.38-.32-.85-.48-1.43-.48s-1.05.13-1.39.39-.5.59-.5 1.01c0 .39.16.69.47.89s.87.39 1.68.57c.81.18 1.47.4 1.97.65s.88.56 1.12.91c.24.35.36.79.36 1.3 0 .85-.34 1.53-1.02 2.04s-1.56.77-2.65.77c-.76 0-1.44-.13-2.02-.4s-1.04-.65-1.38-1.13c-.33-.48-.5-1.01-.5-1.57h1.63c.03.54.25.98.65 1.3s.95.48 1.61.48c.62 0 1.11-.12 1.48-.37s.56-.58.56-1ZM634.55 57.02c-.25-.04-.51-.06-.8-.06-1.07 0-1.79.45-2.17 1.36v6.75h-1.63v-9.51h1.58l.03 1.1c.53-.85 1.29-1.27 2.27-1.27.32 0 .56.04.72.12v1.51ZM639.99 65.24c-1.29 0-2.34-.42-3.15-1.27s-1.21-1.98-1.21-3.4v-.3c0-.94.18-1.79.54-2.53.36-.74.86-1.32 1.51-1.74s1.35-.63 2.11-.63c1.24 0 2.2.41 2.88 1.22s1.03 1.98 1.03 3.5v.68h-6.44c.02.94.3 1.69.82 2.27.52.58 1.19.87 2 .87.57 0 1.06-.12 1.46-.35s.75-.54 1.05-.93l.99.77c-.8 1.22-1.99 1.84-3.59 1.84Zm-.2-8.53c-.66 0-1.21.24-1.65.72s-.72 1.15-.83 2.01h4.76v-.12c-.05-.83-.27-1.47-.67-1.92s-.94-.68-1.62-.68ZM653.61 60.42c0 1.45-.33 2.61-.99 3.5s-1.56 1.33-2.69 1.33-2.06-.37-2.72-1.1v4.58h-1.63V55.56h1.49l.08 1.05c.66-.82 1.58-1.23 2.76-1.23s2.05.43 2.71 1.29 1 2.06 1 3.59v.15Zm-1.63-.18c0-1.07-.23-1.92-.69-2.54s-1.08-.93-1.88-.93c-.98 0-1.72.44-2.21 1.31v4.54c.49.87 1.23 1.3 2.23 1.3.78 0 1.4-.31 1.86-.93s.69-1.54.69-2.76ZM660.28 57.02c-.25-.04-.51-.06-.8-.06-1.07 0-1.79.45-2.17 1.36v6.75h-1.63v-9.51h1.58l.03 1.1c.53-.85 1.29-1.27 2.27-1.27.32 0 .56.04.72.12v1.51ZM665.72 65.24c-1.29 0-2.34-.42-3.15-1.27s-1.21-1.98-1.21-3.4v-.3c0-.94.18-1.79.54-2.53.36-.74.86-1.32 1.51-1.74s1.35-.63 2.11-.63c1.24 0 2.2.41 2.88 1.22s1.03 1.98 1.03 3.5v.68h-6.44c.02.94.3 1.69.82 2.27.52.58 1.19.87 2 .87.57 0 1.06-.12 1.46-.35s.75-.54 1.05-.93l.99.77c-.8 1.22-1.99 1.84-3.59 1.84Zm-.2-8.53c-.66 0-1.21.24-1.65.72s-.72 1.15-.83 2.01h4.76v-.12c-.05-.83-.27-1.47-.67-1.92s-.94-.68-1.62-.68ZM676.84 62.55c0-.44-.17-.78-.5-1.02-.33-.24-.91-.45-1.73-.63s-1.48-.39-1.96-.63c-.48-.25-.84-.54-1.07-.88-.23-.34-.35-.74-.35-1.21 0-.78.33-1.44.99-1.98.66-.54 1.5-.81 2.53-.81 1.08 0 1.95.28 2.62.83s1.01 1.27 1.01 2.14h-1.63c0-.45-.19-.83-.57-1.15-.38-.32-.85-.48-1.43-.48s-1.05.13-1.39.39-.5.59-.5 1.01c0 .39.16.69.47.89s.87.39 1.68.57c.81.18 1.47.4 1.97.65s.88.56 1.12.91c.24.35.36.79.36 1.3 0 .85-.34 1.53-1.02 2.04s-1.56.77-2.65.77c-.76 0-1.44-.13-2.02-.4s-1.04-.65-1.38-1.13c-.33-.48-.5-1.01-.5-1.57h1.63c.03.54.25.98.65 1.3s.95.48 1.61.48c.62 0 1.11-.12 1.48-.37s.56-.58.56-1ZM684.53 65.24c-1.29 0-2.34-.42-3.15-1.27s-1.21-1.98-1.21-3.4v-.3c0-.94.18-1.79.54-2.53.36-.74.86-1.32 1.51-1.74s1.35-.63 2.11-.63c1.24 0 2.2.41 2.88 1.22s1.03 1.98 1.03 3.5v.68h-6.44c.02.94.3 1.69.82 2.27.52.58 1.19.87 2 .87.57 0 1.06-.12 1.46-.35s.75-.54 1.05-.93l.99.77c-.8 1.22-1.99 1.84-3.59 1.84Zm-.2-8.53c-.66 0-1.21.24-1.65.72s-.72 1.15-.83 2.01h4.76v-.12c-.05-.83-.27-1.47-.67-1.92s-.94-.68-1.62-.68ZM691.66 55.56l.05 1.2c.73-.91 1.68-1.37 2.85-1.37 2.01 0 3.02 1.13 3.04 3.4v6.28h-1.63v-6.29c0-.69-.16-1.19-.47-1.52-.31-.33-.79-.49-1.44-.49-.53 0-.99.14-1.39.42s-.71.65-.93 1.11v6.78h-1.63v-9.51h1.54ZM702.26 53.26v2.3h1.78v1.26h-1.78v5.9c0 .38.08.67.24.86.16.19.43.29.81.29.19 0 .45-.04.77-.11v1.31c-.43.12-.84.17-1.25.17-.73 0-1.27-.22-1.64-.66s-.55-1.06-.55-1.87v-5.9h-1.73v-1.26h1.73v-2.3h1.63ZM715.93 62.55c0-.44-.17-.78-.5-1.02-.33-.24-.91-.45-1.73-.63s-1.48-.39-1.96-.63c-.48-.25-.84-.54-1.07-.88-.23-.34-.35-.74-.35-1.21 0-.78.33-1.44.99-1.98.66-.54 1.5-.81 2.53-.81 1.08 0 1.95.28 2.62.83s1.01 1.27 1.01 2.14h-1.63c0-.45-.19-.83-.57-1.15-.38-.32-.85-.48-1.43-.48s-1.05.13-1.39.39-.5.59-.5 1.01c0 .39.16.69.47.89s.87.39 1.68.57c.81.18 1.47.4 1.97.65s.88.56 1.12.91c.24.35.36.79.36 1.3 0 .85-.34 1.53-1.02 2.04s-1.56.77-2.65.77c-.76 0-1.44-.13-2.02-.4s-1.04-.65-1.38-1.13c-.33-.48-.5-1.01-.5-1.57h1.63c.03.54.25.98.65 1.3s.95.48 1.61.48c.62 0 1.11-.12 1.48-.37s.56-.58.56-1ZM721.88 53.26v2.3h1.78v1.26h-1.78v5.9c0 .38.08.67.24.86.16.19.43.29.81.29.19 0 .45-.04.77-.11v1.31c-.43.12-.84.17-1.25.17-.73 0-1.27-.22-1.64-.66s-.55-1.06-.55-1.87v-5.9h-1.73v-1.26h1.73v-2.3h1.63ZM730.15 57.02c-.25-.04-.51-.06-.8-.06-1.07 0-1.79.45-2.17 1.36v6.75h-1.63v-9.51h1.58l.03 1.1c.53-.85 1.29-1.27 2.27-1.27.32 0 .56.04.72.12v1.51ZM735.59 65.24c-1.29 0-2.34-.42-3.15-1.27s-1.21-1.98-1.21-3.4v-.3c0-.94.18-1.79.54-2.53.36-.74.86-1.32 1.51-1.74s1.35-.63 2.11-.63c1.24 0 2.2.41 2.88 1.22s1.03 1.98 1.03 3.5v.68h-6.44c.02.94.3 1.69.82 2.27.52.58 1.19.87 2 .87.57 0 1.06-.12 1.46-.35s.75-.54 1.05-.93l.99.77c-.8 1.22-1.99 1.84-3.59 1.84Zm-.2-8.53c-.66 0-1.21.24-1.65.72s-.72 1.15-.83 2.01h4.76v-.12c-.05-.83-.27-1.47-.67-1.92s-.94-.68-1.62-.68ZM745.13 65.24c-1.29 0-2.34-.42-3.15-1.27s-1.21-1.98-1.21-3.4v-.3c0-.94.18-1.79.54-2.53.36-.74.86-1.32 1.51-1.74s1.35-.63 2.11-.63c1.24 0 2.2.41 2.88 1.22s1.03 1.98 1.03 3.5v.68h-6.44c.02.94.3 1.69.82 2.27.52.58 1.19.87 2 .87.57 0 1.06-.12 1.46-.35s.75-.54 1.05-.93l.99.77c-.8 1.22-1.99 1.84-3.59 1.84Zm-.2-8.53c-.66 0-1.21.24-1.65.72s-.72 1.15-.83 2.01h4.76v-.12c-.05-.83-.27-1.47-.67-1.92s-.94-.68-1.62-.68ZM752.92 53.26v2.3h1.78v1.26h-1.78v5.9c0 .38.08.67.24.86.16.19.43.29.81.29.19 0 .45-.04.77-.11v1.31c-.43.12-.84.17-1.25.17-.73 0-1.27-.22-1.64-.66s-.55-1.06-.55-1.87v-5.9h-1.73v-1.26h1.73v-2.3h1.63ZM762.13 62.55c0-.44-.17-.78-.5-1.02-.33-.24-.91-.45-1.73-.63s-1.48-.39-1.96-.63c-.48-.25-.84-.54-1.07-.88-.23-.34-.35-.74-.35-1.21 0-.78.33-1.44.99-1.98.66-.54 1.5-.81 2.53-.81 1.08 0 1.95.28 2.62.83s1.01 1.27 1.01 2.14h-1.63c0-.45-.19-.83-.57-1.15-.38-.32-.85-.48-1.43-.48s-1.05.13-1.39.39-.5.59-.5 1.01c0 .39.16.69.47.89s.87.39 1.68.57c.81.18 1.47.4 1.97.65s.88.56 1.12.91c.24.35.36.79.36 1.3 0 .85-.34 1.53-1.02 2.04s-1.56.77-2.65.77c-.76 0-1.44-.13-2.02-.4s-1.04-.65-1.38-1.13c-.33-.48-.5-1.01-.5-1.57h1.63c.03.54.25.98.65 1.3s.95.48 1.61.48c.62 0 1.11-.12 1.48-.37s.56-.58.56-1ZM771.87 55.56l.05 1.2c.73-.91 1.68-1.37 2.85-1.37 2.01 0 3.02 1.13 3.04 3.4v6.28h-1.63v-6.29c0-.69-.16-1.19-.47-1.52-.31-.33-.79-.49-1.44-.49-.53 0-.99.14-1.39.42s-.71.65-.93 1.11v6.78h-1.63v-9.51h1.54ZM786.14 65.07c-.09-.19-.17-.52-.23-1-.76.79-1.66 1.18-2.71 1.18-.94 0-1.71-.27-2.31-.8-.6-.53-.9-1.2-.9-2.02 0-.99.38-1.76 1.13-2.31.75-.55 1.81-.82 3.18-.82h1.58v-.75c0-.57-.17-1.02-.51-1.36s-.84-.51-1.5-.51c-.58 0-1.07.15-1.46.44s-.59.65-.59 1.06h-1.63c0-.47.17-.93.5-1.38s.79-.79 1.37-1.05 1.21-.39 1.9-.39c1.1 0 1.95.27 2.58.82s.94 1.3.97 2.26v4.38c0 .87.11 1.57.33 2.08v.14h-1.71Zm-2.7-1.24c.51 0 .99-.13 1.45-.4s.79-.61.99-1.03v-1.95h-1.27c-1.99 0-2.99.58-2.99 1.75 0 .51.17.91.51 1.2s.78.43 1.31.43ZM791.59 55.56l.04 1.05c.7-.82 1.64-1.23 2.82-1.23 1.33 0 2.24.51 2.72 1.53.32-.46.73-.83 1.24-1.11.51-.28 1.11-.42 1.8-.42 2.09 0 3.15 1.1 3.18 3.31v6.37h-1.63v-6.28c0-.68-.16-1.19-.47-1.52s-.83-.51-1.56-.51c-.6 0-1.1.18-1.5.54s-.63.85-.69 1.45v6.31h-1.63v-6.23c0-1.38-.68-2.07-2.03-2.07-1.07 0-1.8.45-2.19 1.36v6.94h-1.63v-9.51h1.54ZM809.78 65.24c-1.29 0-2.34-.42-3.15-1.27s-1.21-1.98-1.21-3.4v-.3c0-.94.18-1.79.54-2.53.36-.74.86-1.32 1.51-1.74s1.35-.63 2.11-.63c1.24 0 2.2.41 2.88 1.22s1.03 1.98 1.03 3.5v.68h-6.44c.02.94.3 1.69.82 2.27.52.58 1.19.87 2 .87.57 0 1.06-.12 1.46-.35s.75-.54 1.05-.93l.99.77c-.8 1.22-1.99 1.84-3.59 1.84Zm-.2-8.53c-.66 0-1.21.24-1.65.72s-.72 1.15-.83 2.01h4.76v-.12c-.05-.83-.27-1.47-.67-1.92s-.94-.68-1.62-.68ZM814.97 60.23c0-1.46.35-2.63 1.04-3.52s1.6-1.33 2.72-1.33 2 .38 2.65 1.14v-4.96h1.63v13.5h-1.49l-.08-1.02c-.65.8-1.56 1.2-2.72 1.2s-2-.45-2.69-1.35c-.7-.9-1.04-2.08-1.04-3.53v-.12Zm1.63.18c0 1.08.22 1.92.67 2.53s1.06.91 1.85.91c1.03 0 1.78-.46 2.26-1.39v-4.37c-.49-.9-1.23-1.34-2.24-1.34-.8 0-1.42.31-1.86.92s-.67 1.53-.67 2.73ZM835.85 65.07c-.09-.19-.17-.52-.23-1-.76.79-1.66 1.18-2.71 1.18-.94 0-1.71-.27-2.31-.8-.6-.53-.9-1.2-.9-2.02 0-.99.38-1.76 1.13-2.31.75-.55 1.81-.82 3.18-.82h1.58v-.75c0-.57-.17-1.02-.51-1.36s-.84-.51-1.5-.51c-.58 0-1.07.15-1.46.44s-.59.65-.59 1.06h-1.63c0-.47.17-.93.5-1.38s.79-.79 1.37-1.05 1.21-.39 1.9-.39c1.1 0 1.95.27 2.58.82s.94 1.3.97 2.26v4.38c0 .87.11 1.57.33 2.08v.14h-1.71Zm-2.7-1.24c.51 0 .99-.13 1.45-.4s.79-.61.99-1.03v-1.95h-1.27c-1.99 0-2.99.58-2.99 1.75 0 .51.17.91.51 1.2s.78.43 1.31.43ZM840.57 65.07v-8.25h-1.5v-1.26h1.5v-.98c0-1.02.27-1.81.82-2.36s1.32-.83 2.31-.83c.38 0 .75.05 1.12.15l-.09 1.31c-.28-.05-.57-.08-.88-.08-.53 0-.93.15-1.22.46s-.43.75-.43 1.33v1h2.03v1.26h-2.03v8.25h-1.63ZM848.22 53.26v2.3H850v1.26h-1.78v5.9c0 .38.08.67.24.86.16.19.43.29.81.29.19 0 .45-.04.77-.11v1.31c-.43.12-.84.17-1.25.17-.73 0-1.27-.22-1.64-.66s-.55-1.06-.55-1.87v-5.9h-1.73v-1.26h1.73v-2.3h1.63ZM855.84 65.24c-1.29 0-2.34-.42-3.15-1.27s-1.21-1.98-1.21-3.4v-.3c0-.94.18-1.79.54-2.53.36-.74.86-1.32 1.51-1.74s1.35-.63 2.11-.63c1.24 0 2.2.41 2.88 1.22s1.03 1.98 1.03 3.5v.68h-6.44c.02.94.3 1.69.82 2.27.52.58 1.19.87 2 .87.57 0 1.06-.12 1.46-.35s.75-.54 1.05-.93l.99.77c-.8 1.22-1.99 1.84-3.59 1.84Zm-.2-8.53c-.66 0-1.21.24-1.65.72s-.72 1.15-.83 2.01h4.76v-.12c-.05-.83-.27-1.47-.67-1.92s-.94-.68-1.62-.68ZM866.03 57.02c-.25-.04-.51-.06-.8-.06-1.07 0-1.79.45-2.17 1.36v6.75h-1.63v-9.51h1.58l.03 1.1c.53-.85 1.29-1.27 2.27-1.27.32 0 .56.04.72.12v1.51ZM877.85 65.07c-.09-.19-.17-.52-.23-1-.76.79-1.66 1.18-2.71 1.18-.94 0-1.71-.27-2.31-.8-.6-.53-.9-1.2-.9-2.02 0-.99.38-1.76 1.13-2.31.75-.55 1.81-.82 3.18-.82h1.58v-.75c0-.57-.17-1.02-.51-1.36s-.84-.51-1.5-.51c-.58 0-1.07.15-1.46.44s-.59.65-.59 1.06h-1.63c0-.47.17-.93.5-1.38s.79-.79 1.37-1.05 1.21-.39 1.9-.39c1.1 0 1.95.27 2.58.82s.94 1.3.97 2.26v4.38c0 .87.11 1.57.33 2.08v.14h-1.71Zm-2.7-1.24c.51 0 .99-.13 1.45-.4s.79-.61.99-1.03v-1.95h-1.27c-1.99 0-2.99.58-2.99 1.75 0 .51.17.91.51 1.2s.78.43 1.31.43ZM894.65 62.83l1.83-7.27h1.63l-2.77 9.51h-1.32l-2.31-7.21-2.25 7.21h-1.32l-2.76-9.51H887l1.87 7.12 2.21-7.12h1.31l2.26 7.27ZM899.32 60.22c0-.93.18-1.77.55-2.51.37-.74.88-1.32 1.53-1.72.65-.4 1.4-.61 2.24-.61 1.29 0 2.34.45 3.14 1.34.8.9 1.2 2.09 1.2 3.58v.11c0 .93-.18 1.76-.53 2.49-.36.74-.86 1.31-1.52 1.72-.66.41-1.42.62-2.27.62-1.29 0-2.33-.45-3.13-1.34-.8-.9-1.2-2.08-1.2-3.56v-.11Zm1.63.19c0 1.05.24 1.9.73 2.54s1.14.96 1.96.96 1.48-.32 1.97-.97.73-1.55.73-2.72c0-1.04-.25-1.89-.74-2.54s-1.15-.97-1.97-.97-1.45.32-1.94.96-.74 1.55-.74 2.74ZM911.55 55.56l.04 1.05c.7-.82 1.64-1.23 2.82-1.23 1.33 0 2.24.51 2.72 1.53.32-.46.73-.83 1.24-1.11.51-.28 1.11-.42 1.8-.42 2.09 0 3.15 1.1 3.18 3.31v6.37h-1.63v-6.28c0-.68-.16-1.19-.47-1.52s-.83-.51-1.56-.51c-.6 0-1.1.18-1.5.54s-.63.85-.69 1.45v6.31h-1.63v-6.23c0-1.38-.68-2.07-2.03-2.07-1.07 0-1.8.45-2.19 1.36v6.94h-1.63v-9.51h1.54ZM929.74 65.24c-1.29 0-2.34-.42-3.15-1.27s-1.21-1.98-1.21-3.4v-.3c0-.94.18-1.79.54-2.53.36-.74.86-1.32 1.51-1.74s1.35-.63 2.11-.63c1.24 0 2.2.41 2.88 1.22s1.03 1.98 1.03 3.5v.68h-6.44c.02.94.3 1.69.82 2.27.52.58 1.19.87 2 .87.57 0 1.06-.12 1.46-.35s.75-.54 1.05-.93l.99.77c-.8 1.22-1.99 1.84-3.59 1.84Zm-.2-8.53c-.66 0-1.21.24-1.65.72s-.72 1.15-.83 2.01h4.76v-.12c-.05-.83-.27-1.47-.67-1.92s-.94-.68-1.62-.68ZM936.87 55.56l.05 1.2c.73-.91 1.68-1.37 2.85-1.37 2.01 0 3.02 1.13 3.04 3.4v6.28h-1.63v-6.29c0-.69-.16-1.19-.47-1.52-.31-.33-.79-.49-1.44-.49-.53 0-.99.14-1.39.42s-.71.65-.93 1.11v6.78h-1.63v-9.51h1.54ZM945.3 64.22c0-.28.08-.52.25-.7.17-.19.42-.28.75-.28s.59.09.76.28.26.42.26.7-.09.5-.26.68-.43.27-.76.27-.58-.09-.75-.27a.953.953 0 0 1-.25-.68ZM563.79 135.65h-4.11v11.42H558v-11.42h-4.1v-1.38h9.9v1.38ZM567.06 138.71c.72-.88 1.66-1.33 2.81-1.33 2.01 0 3.02 1.13 3.04 3.4v6.28h-1.63v-6.29c0-.69-.16-1.19-.47-1.52-.31-.33-.79-.49-1.44-.49-.53 0-.99.14-1.39.42s-.71.65-.93 1.11v6.78h-1.63v-13.5h1.63v5.14ZM579.29 147.24c-1.29 0-2.34-.42-3.15-1.27s-1.21-1.98-1.21-3.4v-.3c0-.94.18-1.79.54-2.53.36-.74.86-1.32 1.51-1.74s1.35-.63 2.11-.63c1.24 0 2.2.41 2.88 1.22s1.03 1.98 1.03 3.5v.68h-6.44c.02.94.3 1.69.82 2.27.52.58 1.19.87 2 .87.57 0 1.06-.12 1.46-.35s.75-.54 1.05-.93l.99.77c-.8 1.22-1.99 1.84-3.59 1.84Zm-.2-8.53c-.66 0-1.21.24-1.65.72s-.72 1.15-.83 2.01h4.76v-.12c-.05-.83-.27-1.47-.67-1.92s-.94-.68-1.62-.68ZM591.11 147.07h-1.63v-13.5h1.63v13.5ZM597.65 147.24c-1.29 0-2.34-.42-3.15-1.27s-1.21-1.98-1.21-3.4v-.3c0-.94.18-1.79.54-2.53.36-.74.86-1.32 1.51-1.74s1.35-.63 2.11-.63c1.24 0 2.2.41 2.88 1.22s1.03 1.98 1.03 3.5v.68h-6.44c.02.94.3 1.69.82 2.27.52.58 1.19.87 2 .87.57 0 1.06-.12 1.46-.35s.75-.54 1.05-.93l.99.77c-.8 1.22-1.99 1.84-3.59 1.84Zm-.2-8.53c-.66 0-1.21.24-1.65.72s-.72 1.15-.83 2.01h4.76v-.12c-.05-.83-.27-1.47-.67-1.92s-.94-.68-1.62-.68ZM604.78 137.56l.05 1.2c.73-.91 1.68-1.37 2.85-1.37 2.01 0 3.02 1.13 3.04 3.4v6.28h-1.63v-6.29c0-.69-.16-1.19-.47-1.52-.31-.33-.79-.49-1.44-.49-.53 0-.99.14-1.39.42s-.71.65-.93 1.11v6.78h-1.63v-9.51h1.54ZM612.79 142.23c0-1.48.34-2.66 1.03-3.54s1.59-1.31 2.72-1.31 2.07.41 2.72 1.23l.08-1.05h1.49v9.28c0 1.23-.37 2.2-1.09 2.91-.73.71-1.71 1.06-2.94 1.06-.69 0-1.36-.15-2.01-.44s-1.16-.69-1.5-1.2l.84-.98c.7.86 1.55 1.29 2.56 1.29.79 0 1.41-.22 1.85-.67s.66-1.07.66-1.88v-.82c-.65.75-1.54 1.12-2.66 1.12s-2.01-.45-2.7-1.34c-.69-.9-1.03-2.12-1.03-3.67Zm1.63.18c0 1.07.22 1.91.66 2.53s1.05.92 1.85.92c1.03 0 1.78-.47 2.26-1.4v-4.34c-.5-.91-1.25-1.36-2.24-1.36-.79 0-1.41.31-1.85.92s-.67 1.53-.67 2.73ZM625.48 135.26v2.3h1.78v1.26h-1.78v5.9c0 .38.08.67.24.86.16.19.43.29.81.29.19 0 .45-.04.77-.11v1.31c-.43.12-.84.17-1.25.17-.73 0-1.27-.22-1.64-.66s-.55-1.06-.55-1.87v-5.9h-1.73v-1.26h1.73v-2.3h1.63ZM630.78 138.71c.72-.88 1.66-1.33 2.81-1.33 2.01 0 3.02 1.13 3.04 3.4v6.28H635v-6.29c0-.69-.16-1.19-.47-1.52-.31-.33-.79-.49-1.44-.49-.53 0-.99.14-1.39.42s-.71.65-.93 1.11v6.78h-1.63v-13.5h1.63v5.14ZM643.09 142.22c0-.93.18-1.77.55-2.51.37-.74.88-1.32 1.53-1.72.65-.4 1.4-.61 2.24-.61 1.29 0 2.34.45 3.14 1.34.8.9 1.2 2.09 1.2 3.58v.11c0 .93-.18 1.76-.53 2.49-.36.74-.86 1.31-1.52 1.72-.66.41-1.42.62-2.27.62-1.29 0-2.33-.45-3.13-1.34-.8-.9-1.2-2.08-1.2-3.56v-.11Zm1.63.19c0 1.05.24 1.9.73 2.54s1.14.96 1.96.96 1.48-.32 1.97-.97.73-1.55.73-2.72c0-1.04-.25-1.89-.74-2.54s-1.15-.97-1.97-.97-1.45.32-1.94.96-.74 1.55-.74 2.74ZM654.59 147.07v-8.25h-1.5v-1.26h1.5v-.98c0-1.02.27-1.81.82-2.36s1.32-.83 2.31-.83c.38 0 .75.05 1.12.15l-.09 1.31c-.28-.05-.57-.08-.88-.08-.53 0-.93.15-1.22.46s-.43.75-.43 1.33v1h2.03v1.26h-2.03v8.25h-1.63ZM666.7 135.26v2.3h1.78v1.26h-1.78v5.9c0 .38.08.67.24.86.16.19.43.29.81.29.19 0 .45-.04.77-.11v1.31c-.43.12-.84.17-1.25.17-.73 0-1.27-.22-1.64-.66s-.55-1.06-.55-1.87v-5.9h-1.73v-1.26h1.73v-2.3h1.63ZM672 138.71c.72-.88 1.66-1.33 2.81-1.33 2.01 0 3.02 1.13 3.04 3.4v6.28h-1.63v-6.29c0-.69-.16-1.19-.47-1.52-.31-.33-.79-.49-1.44-.49-.53 0-.99.14-1.39.42s-.71.65-.93 1.11v6.78h-1.63v-13.5h1.63v5.14ZM684.24 147.24c-1.29 0-2.34-.42-3.15-1.27s-1.21-1.98-1.21-3.4v-.3c0-.94.18-1.79.54-2.53.36-.74.86-1.32 1.51-1.74s1.35-.63 2.11-.63c1.24 0 2.2.41 2.88 1.22s1.03 1.98 1.03 3.5v.68h-6.44c.02.94.3 1.69.82 2.27.52.58 1.19.87 2 .87.57 0 1.06-.12 1.46-.35s.75-.54 1.05-.93l.99.77c-.8 1.22-1.99 1.84-3.59 1.84Zm-.2-8.53c-.66 0-1.21.24-1.65.72s-.72 1.15-.83 2.01h4.76v-.12c-.05-.83-.27-1.47-.67-1.92s-.94-.68-1.62-.68ZM696.05 147.07h-1.63v-13.5h1.63v13.5ZM698.66 135.04c0-.26.08-.49.24-.67s.4-.27.72-.27.56.09.72.27.25.4.25.67-.08.48-.25.66-.4.26-.72.26-.56-.09-.72-.26-.24-.4-.24-.66Zm1.76 12.03h-1.63v-9.51h1.63v9.51ZM704.56 137.56l.05 1.2c.73-.91 1.68-1.37 2.85-1.37 2.01 0 3.02 1.13 3.04 3.4v6.28h-1.63v-6.29c0-.69-.16-1.19-.47-1.52-.31-.33-.79-.49-1.44-.49-.53 0-.99.14-1.39.42s-.71.65-.93 1.11v6.78h-1.63v-9.51h1.54ZM716.9 147.24c-1.29 0-2.34-.42-3.15-1.27s-1.21-1.98-1.21-3.4v-.3c0-.94.18-1.79.54-2.53.36-.74.86-1.32 1.51-1.74s1.35-.63 2.11-.63c1.24 0 2.2.41 2.88 1.22s1.03 1.98 1.03 3.5v.68h-6.44c.02.94.3 1.69.82 2.27.52.58 1.19.87 2 .87.57 0 1.06-.12 1.46-.35s.75-.54 1.05-.93l.99.77c-.8 1.22-1.99 1.84-3.59 1.84Zm-.2-8.53c-.66 0-1.21.24-1.65.72s-.72 1.15-.83 2.01h4.76v-.12c-.05-.83-.27-1.47-.67-1.92s-.94-.68-1.62-.68ZM728.02 144.55c0-.44-.17-.78-.5-1.02-.33-.24-.91-.45-1.73-.63s-1.48-.39-1.96-.63c-.48-.25-.84-.54-1.07-.88-.23-.34-.35-.74-.35-1.21 0-.78.33-1.44.99-1.98.66-.54 1.5-.81 2.53-.81 1.08 0 1.95.28 2.62.83s1.01 1.27 1.01 2.14h-1.63c0-.45-.19-.83-.57-1.15-.38-.32-.85-.48-1.43-.48s-1.05.13-1.39.39-.5.59-.5 1.01c0 .39.16.69.47.89s.87.39 1.68.57c.81.18 1.47.4 1.97.65s.88.56 1.12.91c.24.35.36.79.36 1.3 0 .85-.34 1.53-1.02 2.04s-1.56.77-2.65.77c-.76 0-1.44-.13-2.02-.4s-1.04-.65-1.38-1.13c-.33-.48-.5-1.01-.5-1.57h1.63c.03.54.25.98.65 1.3s.95.48 1.61.48c.62 0 1.11-.12 1.48-.37s.56-.58.56-1ZM736.23 135.04c0-.26.08-.49.24-.67s.4-.27.72-.27.56.09.72.27.25.4.25.67-.08.48-.25.66-.4.26-.72.26-.56-.09-.72-.26-.24-.4-.24-.66Zm1.76 12.03h-1.63v-9.51h1.63v9.51ZM746.13 144.55c0-.44-.17-.78-.5-1.02-.33-.24-.91-.45-1.73-.63s-1.48-.39-1.96-.63c-.48-.25-.84-.54-1.07-.88-.23-.34-.35-.74-.35-1.21 0-.78.33-1.44.99-1.98.66-.54 1.5-.81 2.53-.81 1.08 0 1.95.28 2.62.83s1.01 1.27 1.01 2.14h-1.63c0-.45-.19-.83-.57-1.15-.38-.32-.85-.48-1.43-.48s-1.05.13-1.39.39-.5.59-.5 1.01c0 .39.16.69.47.89s.87.39 1.68.57c.81.18 1.47.4 1.97.65s.88.56 1.12.91c.24.35.36.79.36 1.3 0 .85-.34 1.53-1.02 2.04s-1.56.77-2.65.77c-.76 0-1.44-.13-2.02-.4s-1.04-.65-1.38-1.13c-.33-.48-.5-1.01-.5-1.57h1.63c.03.54.25.98.65 1.3s.95.48 1.61.48c.62 0 1.11-.12 1.48-.37s.56-.58.56-1ZM762.36 142.42c0 1.45-.33 2.61-.99 3.5s-1.56 1.33-2.69 1.33-2.06-.37-2.72-1.1v4.58h-1.63v-13.17h1.49l.08 1.05c.66-.82 1.58-1.23 2.76-1.23s2.05.43 2.71 1.29 1 2.06 1 3.59v.15Zm-1.63-.18c0-1.07-.23-1.92-.69-2.54s-1.08-.93-1.88-.93c-.98 0-1.72.44-2.21 1.31v4.54c.49.87 1.23 1.3 2.23 1.3.78 0 1.4-.31 1.86-.93s.69-1.54.69-2.76ZM769.02 139.02c-.25-.04-.51-.06-.8-.06-1.07 0-1.79.45-2.17 1.36v6.75h-1.63v-9.51H766l.03 1.1c.53-.85 1.29-1.27 2.27-1.27.32 0 .56.04.72.12v1.51ZM769.91 142.22c0-.93.18-1.77.55-2.51.37-.74.88-1.32 1.53-1.72.65-.4 1.4-.61 2.24-.61 1.29 0 2.34.45 3.14 1.34.8.9 1.2 2.09 1.2 3.58v.11c0 .93-.18 1.76-.53 2.49-.36.74-.86 1.31-1.52 1.72-.66.41-1.42.62-2.27.62-1.29 0-2.33-.45-3.13-1.34-.8-.9-1.2-2.08-1.2-3.56v-.11Zm1.63.19c0 1.05.24 1.9.73 2.54s1.14.96 1.96.96 1.48-.32 1.97-.97.73-1.55.73-2.72c0-1.04-.25-1.89-.74-2.54s-1.15-.97-1.97-.97-1.45.32-1.94.96-.74 1.55-.74 2.74ZM788.64 142.42c0 1.45-.33 2.61-.99 3.5s-1.56 1.33-2.69 1.33-2.06-.37-2.72-1.1v4.58h-1.63v-13.17h1.49l.08 1.05c.66-.82 1.58-1.23 2.76-1.23s2.05.43 2.71 1.29 1 2.06 1 3.59v.15Zm-1.63-.18c0-1.07-.23-1.92-.69-2.54s-1.08-.93-1.88-.93c-.98 0-1.72.44-2.21 1.31v4.54c.49.87 1.23 1.3 2.23 1.3.78 0 1.4-.31 1.86-.93s.69-1.54.69-2.76ZM790.28 142.22c0-.93.18-1.77.55-2.51.37-.74.88-1.32 1.53-1.72.65-.4 1.4-.61 2.24-.61 1.29 0 2.34.45 3.14 1.34.8.9 1.2 2.09 1.2 3.58v.11c0 .93-.18 1.76-.53 2.49-.36.74-.86 1.31-1.52 1.72-.66.41-1.42.62-2.27.62-1.29 0-2.33-.45-3.13-1.34-.8-.9-1.2-2.08-1.2-3.56v-.11Zm1.63.19c0 1.05.24 1.9.73 2.54s1.14.96 1.96.96 1.48-.32 1.97-.97.73-1.55.73-2.72c0-1.04-.25-1.89-.74-2.54s-1.15-.97-1.97-.97-1.45.32-1.94.96-.74 1.55-.74 2.74ZM805.57 139.02c-.25-.04-.51-.06-.8-.06-1.07 0-1.79.45-2.17 1.36v6.75h-1.63v-9.51h1.58l.03 1.1c.53-.85 1.29-1.27 2.27-1.27.32 0 .56.04.72.12v1.51ZM809.71 135.26v2.3h1.78v1.26h-1.78v5.9c0 .38.08.67.24.86.16.19.43.29.81.29.19 0 .45-.04.77-.11v1.31c-.43.12-.84.17-1.25.17-.73 0-1.27-.22-1.64-.66s-.55-1.06-.55-1.87v-5.9h-1.73v-1.26h1.73v-2.3h1.63ZM813.39 135.04c0-.26.08-.49.24-.67s.4-.27.72-.27.56.09.72.27.25.4.25.67-.08.48-.25.66-.4.26-.72.26-.56-.09-.72-.26-.24-.4-.24-.66Zm1.76 12.03h-1.63v-9.51h1.63v9.51ZM817.32 142.22c0-.93.18-1.77.55-2.51.37-.74.88-1.32 1.53-1.72.65-.4 1.4-.61 2.24-.61 1.29 0 2.34.45 3.14 1.34.8.9 1.2 2.09 1.2 3.58v.11c0 .93-.18 1.76-.53 2.49-.36.74-.86 1.31-1.52 1.72-.66.41-1.42.62-2.27.62-1.29 0-2.33-.45-3.13-1.34-.8-.9-1.2-2.08-1.2-3.56v-.11Zm1.63.19c0 1.05.24 1.9.73 2.54s1.14.96 1.96.96 1.48-.32 1.97-.97.73-1.55.73-2.72c0-1.04-.25-1.89-.74-2.54s-1.15-.97-1.97-.97-1.45.32-1.94.96-.74 1.55-.74 2.74ZM829.55 137.56l.05 1.2c.73-.91 1.68-1.37 2.85-1.37 2.01 0 3.02 1.13 3.04 3.4v6.28h-1.63v-6.29c0-.69-.16-1.19-.47-1.52-.31-.33-.79-.49-1.44-.49-.53 0-.99.14-1.39.42s-.71.65-.93 1.11v6.78H828v-9.51h1.54ZM843.82 147.07c-.09-.19-.17-.52-.23-1-.76.79-1.66 1.18-2.71 1.18-.94 0-1.71-.27-2.31-.8-.6-.53-.9-1.2-.9-2.02 0-.99.38-1.76 1.13-2.31.75-.55 1.81-.82 3.18-.82h1.58v-.75c0-.57-.17-1.02-.51-1.36s-.84-.51-1.5-.51c-.58 0-1.07.15-1.46.44s-.59.65-.59 1.06h-1.63c0-.47.17-.93.5-1.38s.79-.79 1.37-1.05 1.21-.39 1.9-.39c1.1 0 1.95.27 2.58.82s.94 1.3.97 2.26v4.38c0 .87.11 1.57.33 2.08v.14h-1.71Zm-2.7-1.24c.51 0 .99-.13 1.45-.4s.79-.61.99-1.03v-1.95h-1.27c-1.99 0-2.99.58-2.99 1.75 0 .51.17.91.51 1.2s.78.43 1.31.43ZM849.51 147.07h-1.63v-13.5h1.63v13.5ZM858.77 135.26v2.3h1.78v1.26h-1.78v5.9c0 .38.08.67.24.86.16.19.43.29.81.29.19 0 .45-.04.77-.11v1.31c-.43.12-.84.17-1.25.17-.73 0-1.27-.22-1.64-.66s-.55-1.06-.55-1.87v-5.9h-1.73v-1.26h1.73v-2.3h1.63ZM861.84 142.22c0-.93.18-1.77.55-2.51.37-.74.88-1.32 1.53-1.72.65-.4 1.4-.61 2.24-.61 1.29 0 2.34.45 3.14 1.34.8.9 1.2 2.09 1.2 3.58v.11c0 .93-.18 1.76-.53 2.49-.36.74-.86 1.31-1.52 1.72-.66.41-1.42.62-2.27.62-1.29 0-2.33-.45-3.13-1.34-.8-.9-1.2-2.08-1.2-3.56v-.11Zm1.63.19c0 1.05.24 1.9.73 2.54s1.14.96 1.96.96 1.48-.32 1.97-.97.73-1.55.73-2.72c0-1.04-.25-1.89-.74-2.54s-1.15-.97-1.97-.97-1.45.32-1.94.96-.74 1.55-.74 2.74ZM879.19 135.26v2.3h1.78v1.26h-1.78v5.9c0 .38.08.67.24.86.16.19.43.29.81.29.19 0 .45-.04.77-.11v1.31c-.43.12-.84.17-1.25.17-.73 0-1.27-.22-1.64-.66s-.55-1.06-.55-1.87v-5.9h-1.73v-1.26h1.73v-2.3h1.63ZM884.49 138.71c.72-.88 1.66-1.33 2.81-1.33 2.01 0 3.02 1.13 3.04 3.4v6.28h-1.63v-6.29c0-.69-.16-1.19-.47-1.52-.31-.33-.79-.49-1.44-.49-.53 0-.99.14-1.39.42s-.71.65-.93 1.11v6.78h-1.63v-13.5h1.63v5.14ZM896.73 147.24c-1.29 0-2.34-.42-3.15-1.27s-1.21-1.98-1.21-3.4v-.3c0-.94.18-1.79.54-2.53.36-.74.86-1.32 1.51-1.74s1.35-.63 2.11-.63c1.24 0 2.2.41 2.88 1.22s1.03 1.98 1.03 3.5v.68H894c.02.94.3 1.69.82 2.27.52.58 1.19.87 2 .87.57 0 1.06-.12 1.46-.35s.75-.54 1.05-.93l.99.77c-.8 1.22-1.99 1.84-3.59 1.84Zm-.2-8.53c-.66 0-1.21.24-1.65.72s-.72 1.15-.83 2.01h4.76v-.12c-.05-.83-.27-1.47-.67-1.92s-.94-.68-1.62-.68ZM556.23 159.16l.05 1.2c.73-.91 1.68-1.37 2.85-1.37 2.01 0 3.02 1.13 3.04 3.4v6.28h-1.63v-6.29c0-.69-.16-1.19-.47-1.52-.31-.33-.79-.49-1.44-.49-.53 0-.99.14-1.39.42s-.71.65-.93 1.11v6.78h-1.63v-9.51h1.54ZM570.5 167.73c-.63.74-1.56 1.12-2.79 1.12-1.01 0-1.79-.29-2.32-.88-.53-.59-.8-1.46-.8-2.62v-6.19h1.63v6.14c0 1.44.59 2.16 1.76 2.16 1.24 0 2.07-.46 2.48-1.39v-6.92h1.63v9.51h-1.55l-.04-.94ZM576.08 159.16l.04 1.05c.7-.82 1.64-1.23 2.82-1.23 1.33 0 2.24.51 2.72 1.53.32-.46.73-.83 1.24-1.11.51-.28 1.11-.42 1.8-.42 2.09 0 3.15 1.1 3.18 3.31v6.37h-1.63v-6.28c0-.68-.16-1.19-.47-1.52s-.83-.51-1.56-.51c-.6 0-1.1.18-1.5.54s-.63.85-.69 1.45v6.31h-1.63v-6.23c0-1.38-.68-2.07-2.03-2.07-1.07 0-1.8.45-2.19 1.36v6.94h-1.63v-9.51h1.54ZM598.38 164.02c0 1.45-.33 2.62-1 3.5s-1.56 1.32-2.69 1.32c-1.2 0-2.13-.42-2.79-1.27l-.08 1.1h-1.49v-13.5h1.63v5.04c.66-.81 1.56-1.22 2.72-1.22s2.06.44 2.72 1.31c.66.87.99 2.07.99 3.59v.14Zm-1.63-.18c0-1.11-.21-1.96-.64-2.57s-1.04-.91-1.85-.91c-1.07 0-1.84.5-2.31 1.49v4.11c.5 1 1.27 1.49 2.33 1.49.78 0 1.39-.3 1.82-.91s.65-1.51.65-2.72ZM604.37 168.84c-1.29 0-2.34-.42-3.15-1.27s-1.21-1.98-1.21-3.4v-.3c0-.94.18-1.79.54-2.53.36-.74.86-1.32 1.51-1.74s1.35-.63 2.11-.63c1.24 0 2.2.41 2.88 1.22s1.03 1.98 1.03 3.5v.68h-6.44c.02.94.3 1.7.82 2.27.52.58 1.19.87 2 .87.57 0 1.06-.12 1.46-.35s.75-.54 1.05-.93l.99.77c-.8 1.22-1.99 1.84-3.59 1.84Zm-.2-8.53c-.66 0-1.21.24-1.65.72s-.72 1.15-.83 2.01h4.76v-.12c-.05-.83-.27-1.47-.67-1.92s-.94-.68-1.62-.68ZM614.56 160.62c-.25-.04-.51-.06-.8-.06-1.07 0-1.79.45-2.17 1.36v6.75h-1.63v-9.51h1.58l.03 1.1c.53-.85 1.29-1.27 2.27-1.27.32 0 .56.04.72.12v1.51ZM620.08 163.83c0-.93.18-1.77.55-2.51.37-.74.88-1.32 1.53-1.72.65-.4 1.4-.61 2.24-.61 1.29 0 2.34.45 3.14 1.34.8.9 1.2 2.09 1.2 3.58v.11c0 .93-.18 1.76-.53 2.49-.36.74-.86 1.31-1.52 1.72-.66.41-1.42.62-2.27.62-1.29 0-2.33-.45-3.13-1.34-.8-.9-1.2-2.08-1.2-3.56v-.11Zm1.63.19c0 1.05.24 1.9.73 2.54s1.14.96 1.96.96 1.48-.32 1.97-.97c.49-.65.73-1.55.73-2.72 0-1.04-.25-1.89-.74-2.54s-1.15-.97-1.97-.97-1.45.32-1.94.96-.74 1.55-.74 2.74ZM631.57 168.67v-8.25h-1.5v-1.26h1.5v-.98c0-1.02.27-1.81.82-2.36s1.32-.83 2.31-.83c.38 0 .75.05 1.12.15l-.09 1.31c-.28-.05-.57-.08-.88-.08-.53 0-.93.15-1.22.46s-.43.75-.43 1.33v1h2.03v1.26h-2.03v8.25h-1.63ZM642.28 168.67v-8.25h-1.5v-1.26h1.5v-.98c0-1.02.27-1.81.82-2.36s1.32-.83 2.31-.83c.38 0 .75.05 1.12.15l-.09 1.31c-.28-.05-.57-.08-.88-.08-.53 0-.93.15-1.22.46s-.43.75-.43 1.33v1h2.03v1.26h-2.03v8.25h-1.63ZM647.3 163.83c0-.93.18-1.77.55-2.51.37-.74.88-1.32 1.53-1.72.65-.4 1.4-.61 2.24-.61 1.29 0 2.34.45 3.14 1.34.8.9 1.2 2.09 1.2 3.58v.11c0 .93-.18 1.76-.53 2.49-.36.74-.86 1.31-1.52 1.72-.66.41-1.42.62-2.27.62-1.29 0-2.33-.45-3.13-1.34-.8-.9-1.2-2.08-1.2-3.56v-.11Zm1.63.19c0 1.05.24 1.9.73 2.54s1.14.96 1.96.96 1.48-.32 1.97-.97c.49-.65.73-1.55.73-2.72 0-1.04-.25-1.89-.74-2.54s-1.15-.97-1.97-.97-1.45.32-1.94.96-.74 1.55-.74 2.74ZM662.59 160.62c-.25-.04-.51-.06-.8-.06-1.07 0-1.79.45-2.17 1.36v6.75h-1.63v-9.51h1.58l.03 1.1c.53-.85 1.29-1.27 2.27-1.27.32 0 .56.04.72.12v1.51ZM668.03 168.84c-1.29 0-2.34-.42-3.15-1.27s-1.21-1.98-1.21-3.4v-.3c0-.94.18-1.79.54-2.53.36-.74.86-1.32 1.51-1.74s1.35-.63 2.11-.63c1.24 0 2.2.41 2.88 1.22s1.03 1.98 1.03 3.5v.68h-6.44c.02.94.3 1.7.82 2.27.52.58 1.19.87 2 .87.57 0 1.06-.12 1.46-.35s.75-.54 1.05-.93l.99.77c-.8 1.22-1.99 1.84-3.59 1.84Zm-.2-8.53c-.66 0-1.21.24-1.65.72s-.72 1.15-.83 2.01h4.76v-.12c-.05-.83-.27-1.47-.67-1.92s-.94-.68-1.62-.68ZM673.63 156.64c0-.26.08-.49.24-.67s.4-.27.72-.27.56.09.72.27.25.4.25.67-.08.48-.25.66-.4.26-.72.26-.56-.09-.72-.26-.24-.4-.24-.66Zm1.76 12.03h-1.63v-9.51h1.63v9.51ZM677.6 163.83c0-1.48.34-2.66 1.03-3.54s1.59-1.31 2.72-1.31 2.07.41 2.72 1.23l.08-1.05h1.49v9.28c0 1.23-.37 2.2-1.09 2.91-.73.71-1.71 1.06-2.94 1.06-.69 0-1.36-.15-2.01-.44s-1.16-.69-1.5-1.2l.84-.98c.7.86 1.55 1.29 2.56 1.29.79 0 1.41-.22 1.85-.67s.66-1.07.66-1.88v-.82c-.65.75-1.54 1.12-2.66 1.12s-2.01-.45-2.7-1.34c-.69-.9-1.03-2.12-1.03-3.67Zm1.63.18c0 1.07.22 1.92.66 2.53.44.61 1.05.92 1.85.92 1.03 0 1.78-.47 2.26-1.4v-4.34c-.5-.91-1.25-1.36-2.24-1.36-.79 0-1.41.31-1.85.92s-.67 1.53-.67 2.73ZM689.62 159.16l.05 1.2c.73-.91 1.68-1.37 2.85-1.37 2.01 0 3.02 1.13 3.04 3.4v6.28h-1.63v-6.29c0-.69-.16-1.19-.47-1.52-.31-.33-.79-.49-1.44-.49-.53 0-.99.14-1.39.42s-.71.65-.93 1.11v6.78h-1.63v-9.51h1.54ZM706.29 167.52c.58 0 1.09-.18 1.52-.53s.67-.79.72-1.32h1.54c-.03.54-.22 1.06-.56 1.56s-.81.88-1.38 1.18-1.19.44-1.83.44c-1.29 0-2.32-.43-3.09-1.3-.76-.86-1.15-2.05-1.15-3.55v-.27c0-.93.17-1.75.51-2.47s.83-1.28 1.46-1.68 1.39-.6 2.25-.6c1.07 0 1.95.32 2.66.96.71.64 1.08 1.47 1.13 2.49h-1.54c-.05-.62-.28-1.12-.7-1.52-.42-.4-.94-.59-1.55-.59-.83 0-1.47.3-1.92.89s-.68 1.45-.68 2.58v.31c0 1.1.23 1.94.68 2.53s1.1.89 1.93.89ZM711.9 156.64c0-.26.08-.49.24-.67s.4-.27.72-.27.56.09.72.27.25.4.25.67-.08.48-.25.66-.4.26-.72.26-.56-.09-.72-.26-.24-.4-.24-.66Zm1.76 12.03h-1.63v-9.51h1.63v9.51ZM718.47 156.86v2.3h1.78v1.26h-1.78v5.91c0 .38.08.67.24.86s.43.29.81.29c.19 0 .45-.04.77-.11v1.31c-.43.12-.84.17-1.25.17-.73 0-1.27-.22-1.64-.66s-.55-1.06-.55-1.87v-5.9h-1.73v-1.26h1.73v-2.3h1.63ZM722.15 156.64c0-.26.08-.49.24-.67s.4-.27.72-.27.56.09.72.27.25.4.25.67-.08.48-.25.66-.4.26-.72.26-.56-.09-.72-.26-.24-.4-.24-.66Zm1.76 12.03h-1.63v-9.51h1.63v9.51ZM730.46 168.84c-1.29 0-2.34-.42-3.15-1.27s-1.21-1.98-1.21-3.4v-.3c0-.94.18-1.79.54-2.53.36-.74.86-1.32 1.51-1.74s1.35-.63 2.11-.63c1.24 0 2.2.41 2.88 1.22s1.03 1.98 1.03 3.5v.68h-6.44c.02.94.3 1.7.82 2.27.52.58 1.19.87 2 .87.57 0 1.06-.12 1.46-.35s.75-.54 1.05-.93l.99.77c-.8 1.22-1.99 1.84-3.59 1.84Zm-.2-8.53c-.66 0-1.21.24-1.65.72s-.72 1.15-.83 2.01h4.76v-.12c-.05-.83-.27-1.47-.67-1.92s-.94-.68-1.62-.68ZM741.58 166.15c0-.44-.17-.78-.5-1.02-.33-.24-.91-.45-1.73-.63s-1.48-.39-1.96-.63c-.48-.25-.84-.54-1.07-.88-.23-.34-.35-.74-.35-1.21 0-.78.33-1.44.99-1.98.66-.54 1.5-.81 2.53-.81 1.08 0 1.95.28 2.62.83s1.01 1.27 1.01 2.14h-1.63c0-.45-.19-.83-.57-1.15-.38-.32-.85-.48-1.43-.48s-1.05.13-1.39.39-.5.59-.5 1.01c0 .39.16.69.47.89s.87.39 1.68.57c.81.18 1.47.4 1.97.65s.88.56 1.12.91c.24.36.36.79.36 1.3 0 .85-.34 1.53-1.02 2.04-.68.51-1.56.77-2.65.77-.76 0-1.44-.13-2.02-.4s-1.04-.65-1.38-1.13c-.33-.48-.5-1.01-.5-1.57h1.63c.03.54.25.98.65 1.3.41.32.95.48 1.61.48.62 0 1.11-.12 1.48-.37.37-.25.56-.58.56-1ZM755.66 167.73c-.63.74-1.56 1.12-2.79 1.12-1.01 0-1.79-.29-2.32-.88-.53-.59-.8-1.46-.8-2.62v-6.19h1.63v6.14c0 1.44.59 2.16 1.76 2.16 1.24 0 2.07-.46 2.48-1.39v-6.92h1.63v9.51h-1.55l-.04-.94ZM765.24 166.15c0-.44-.17-.78-.5-1.02-.33-.24-.91-.45-1.73-.63s-1.48-.39-1.96-.63c-.48-.25-.84-.54-1.07-.88-.23-.34-.35-.74-.35-1.21 0-.78.33-1.44.99-1.98.66-.54 1.5-.81 2.53-.81 1.08 0 1.95.28 2.62.83s1.01 1.27 1.01 2.14h-1.63c0-.45-.19-.83-.57-1.15-.38-.32-.85-.48-1.43-.48s-1.05.13-1.39.39-.5.59-.5 1.01c0 .39.16.69.47.89s.87.39 1.68.57c.81.18 1.47.4 1.97.65s.88.56 1.12.91c.24.36.36.79.36 1.3 0 .85-.34 1.53-1.02 2.04-.68.51-1.56.77-2.65.77-.76 0-1.44-.13-2.02-.4s-1.04-.65-1.38-1.13c-.33-.48-.5-1.01-.5-1.57h1.63c.03.54.25.98.65 1.3.41.32.95.48 1.61.48.62 0 1.11-.12 1.48-.37.37-.25.56-.58.56-1ZM769 156.64c0-.26.08-.49.24-.67s.4-.27.72-.27.56.09.72.27.25.4.25.67-.08.48-.25.66-.4.26-.72.26-.56-.09-.72-.26-.24-.4-.24-.66Zm1.76 12.03h-1.63v-9.51h1.63v9.51ZM774.89 159.16l.05 1.2c.73-.91 1.68-1.37 2.85-1.37 2.01 0 3.02 1.13 3.04 3.4v6.28h-1.63v-6.29c0-.69-.16-1.19-.47-1.52-.31-.33-.79-.49-1.44-.49-.53 0-.99.14-1.39.42s-.71.65-.93 1.11v6.78h-1.63v-9.51h1.54ZM782.9 163.83c0-1.48.34-2.66 1.03-3.54s1.59-1.31 2.72-1.31 2.07.41 2.72 1.23l.08-1.05h1.49v9.28c0 1.23-.37 2.2-1.09 2.91-.73.71-1.71 1.06-2.94 1.06-.69 0-1.36-.15-2.01-.44s-1.16-.69-1.5-1.2l.84-.98c.7.86 1.55 1.29 2.56 1.29.79 0 1.41-.22 1.85-.67s.66-1.07.66-1.88v-.82c-.65.75-1.54 1.12-2.66 1.12s-2.01-.45-2.7-1.34c-.69-.9-1.03-2.12-1.03-3.67Zm1.63.18c0 1.07.22 1.92.66 2.53.44.61 1.05.92 1.85.92 1.03 0 1.78-.47 2.26-1.4v-4.34c-.5-.91-1.25-1.36-2.24-1.36-.79 0-1.41.31-1.85.92s-.67 1.53-.67 2.73ZM800.05 156.86v2.3h1.78v1.26h-1.78v5.91c0 .38.08.67.24.86s.43.29.81.29c.19 0 .45-.04.77-.11v1.31c-.43.12-.84.17-1.25.17-.73 0-1.27-.22-1.64-.66s-.55-1.06-.55-1.87v-5.9h-1.73v-1.26h1.73v-2.3h1.63ZM805.35 160.31c.72-.88 1.66-1.33 2.81-1.33 2.01 0 3.02 1.13 3.04 3.4v6.28h-1.63v-6.29c0-.69-.16-1.19-.47-1.52-.31-.33-.79-.49-1.44-.49-.53 0-.99.14-1.39.42s-.71.65-.93 1.11v6.78h-1.63v-13.5h1.63v5.14ZM813.65 156.64c0-.26.08-.49.24-.67s.4-.27.72-.27.56.09.72.27.25.4.25.67-.08.48-.25.66-.4.26-.72.26-.56-.09-.72-.26-.24-.4-.24-.66Zm1.76 12.03h-1.63v-9.51h1.63v9.51ZM823.54 166.15c0-.44-.17-.78-.5-1.02-.33-.24-.91-.45-1.73-.63s-1.48-.39-1.96-.63c-.48-.25-.84-.54-1.07-.88-.23-.34-.35-.74-.35-1.21 0-.78.33-1.44.99-1.98.66-.54 1.5-.81 2.53-.81 1.08 0 1.95.28 2.62.83s1.01 1.27 1.01 2.14h-1.63c0-.45-.19-.83-.57-1.15-.38-.32-.85-.48-1.43-.48s-1.05.13-1.39.39-.5.59-.5 1.01c0 .39.16.69.47.89s.87.39 1.68.57c.81.18 1.47.4 1.97.65s.88.56 1.12.91c.24.36.36.79.36 1.3 0 .85-.34 1.53-1.02 2.04-.68.51-1.56.77-2.65.77-.76 0-1.44-.13-2.02-.4s-1.04-.65-1.38-1.13c-.33-.48-.5-1.01-.5-1.57h1.63c.03.54.25.98.65 1.3.41.32.95.48 1.61.48.62 0 1.11-.12 1.48-.37.37-.25.56-.58.56-1ZM837.28 166.15c0-.44-.17-.78-.5-1.02-.33-.24-.91-.45-1.73-.63s-1.48-.39-1.96-.63c-.48-.25-.84-.54-1.07-.88-.23-.34-.35-.74-.35-1.21 0-.78.33-1.44.99-1.98.66-.54 1.5-.81 2.53-.81 1.08 0 1.95.28 2.62.83s1.01 1.27 1.01 2.14h-1.63c0-.45-.19-.83-.57-1.15-.38-.32-.85-.48-1.43-.48s-1.05.13-1.39.39-.5.59-.5 1.01c0 .39.16.69.47.89s.87.39 1.68.57c.81.18 1.47.4 1.97.65s.88.56 1.12.91c.24.36.36.79.36 1.3 0 .85-.34 1.53-1.02 2.04-.68.51-1.56.77-2.65.77-.76 0-1.44-.13-2.02-.4s-1.04-.65-1.38-1.13c-.33-.48-.5-1.01-.5-1.57h1.63c.03.54.25.98.65 1.3.41.32.95.48 1.61.48.62 0 1.11-.12 1.48-.37.37-.25.56-.58.56-1ZM843.23 156.86v2.3h1.78v1.26h-1.78v5.91c0 .38.08.67.24.86s.43.29.81.29c.19 0 .45-.04.77-.11v1.31c-.43.12-.84.17-1.25.17-.73 0-1.27-.22-1.64-.66s-.55-1.06-.55-1.87v-5.9h-1.73v-1.26h1.73v-2.3h1.63ZM851.5 160.62c-.25-.04-.51-.06-.8-.06-1.07 0-1.79.45-2.17 1.36v6.75h-1.63v-9.51h1.58l.03 1.1c.53-.85 1.29-1.27 2.27-1.27.32 0 .56.04.72.12v1.51ZM856.94 168.84c-1.29 0-2.34-.42-3.15-1.27s-1.21-1.98-1.21-3.4v-.3c0-.94.18-1.79.54-2.53.36-.74.86-1.32 1.51-1.74s1.35-.63 2.11-.63c1.24 0 2.2.41 2.88 1.22s1.03 1.98 1.03 3.5v.68h-6.44c.02.94.3 1.7.82 2.27.52.58 1.19.87 2 .87.57 0 1.06-.12 1.46-.35s.75-.54 1.05-.93l.99.77c-.8 1.22-1.99 1.84-3.59 1.84Zm-.2-8.53c-.66 0-1.21.24-1.65.72s-.72 1.15-.83 2.01h4.76v-.12c-.05-.83-.27-1.47-.67-1.92s-.94-.68-1.62-.68ZM866.48 168.84c-1.29 0-2.34-.42-3.15-1.27s-1.21-1.98-1.21-3.4v-.3c0-.94.18-1.79.54-2.53.36-.74.86-1.32 1.51-1.74s1.35-.63 2.11-.63c1.24 0 2.2.41 2.88 1.22s1.03 1.98 1.03 3.5v.68h-6.44c.02.94.3 1.7.82 2.27.52.58 1.19.87 2 .87.57 0 1.06-.12 1.46-.35s.75-.54 1.05-.93l.99.77c-.8 1.22-1.99 1.84-3.59 1.84Zm-.2-8.53c-.66 0-1.21.24-1.65.72s-.72 1.15-.83 2.01h4.76v-.12c-.05-.83-.27-1.47-.67-1.92s-.94-.68-1.62-.68ZM874.27 156.86v2.3h1.78v1.26h-1.78v5.91c0 .38.08.67.24.86s.43.29.81.29c.19 0 .45-.04.77-.11v1.31c-.43.12-.84.17-1.25.17-.73 0-1.27-.22-1.64-.66s-.55-1.06-.55-1.87v-5.9h-1.73v-1.26h1.73v-2.3h1.63ZM883.94 159.16l.05 1.2c.73-.91 1.68-1.37 2.85-1.37 2.01 0 3.02 1.13 3.04 3.4v6.28h-1.63v-6.29c0-.69-.16-1.19-.47-1.52-.31-.33-.79-.49-1.44-.49-.53 0-.99.14-1.39.42s-.71.65-.93 1.11v6.78h-1.63v-9.51h1.54ZM898.21 168.67c-.09-.19-.17-.52-.23-1-.76.79-1.66 1.18-2.71 1.18-.94 0-1.71-.26-2.31-.79-.6-.53-.9-1.2-.9-2.02 0-.99.38-1.76 1.13-2.31.75-.55 1.81-.82 3.18-.82h1.58v-.75c0-.57-.17-1.02-.51-1.36s-.84-.51-1.5-.51c-.58 0-1.07.15-1.46.44s-.59.65-.59 1.06h-1.63c0-.47.17-.93.5-1.38s.79-.79 1.37-1.05 1.21-.39 1.9-.39c1.1 0 1.95.27 2.58.82s.94 1.3.97 2.26v4.38c0 .87.11 1.57.33 2.08v.14h-1.71Zm-2.7-1.24c.51 0 .99-.13 1.45-.4s.79-.61.99-1.03v-1.95h-1.27c-1.99 0-2.99.58-2.99 1.75 0 .51.17.91.51 1.2s.78.43 1.31.43ZM903.65 159.16l.04 1.05c.7-.82 1.64-1.23 2.82-1.23 1.33 0 2.24.51 2.72 1.53.32-.46.73-.83 1.24-1.11.51-.28 1.11-.42 1.8-.42 2.09 0 3.15 1.1 3.18 3.31v6.37h-1.63v-6.28c0-.68-.16-1.19-.47-1.52s-.83-.51-1.56-.51c-.6 0-1.1.18-1.5.54s-.63.85-.69 1.45v6.31h-1.63v-6.23c0-1.38-.68-2.07-2.03-2.07-1.07 0-1.8.45-2.19 1.36v6.94h-1.63v-9.51h1.54ZM921.85 168.84c-1.29 0-2.34-.42-3.15-1.27s-1.21-1.98-1.21-3.4v-.3c0-.94.18-1.79.54-2.53.36-.74.86-1.32 1.51-1.74s1.35-.63 2.11-.63c1.24 0 2.2.41 2.88 1.22s1.03 1.98 1.03 3.5v.68h-6.44c.02.94.3 1.7.82 2.27.52.58 1.19.87 2 .87.57 0 1.06-.12 1.46-.35s.75-.54 1.05-.93l.99.77c-.8 1.22-1.99 1.84-3.59 1.84Zm-.2-8.53c-.66 0-1.21.24-1.65.72s-.72 1.15-.83 2.01h4.76v-.12c-.05-.83-.27-1.47-.67-1.92s-.94-.68-1.62-.68ZM927.47 167.82c0-.28.08-.52.25-.7.17-.19.42-.28.75-.28s.59.09.76.28.26.42.26.7-.09.5-.26.68-.43.27-.76.27-.58-.09-.75-.27a.953.953 0 0 1-.25-.68ZM11.36 143.01c-.16 1.35-.66 2.4-1.5 3.13-.84.74-1.96 1.1-3.35 1.1-1.51 0-2.72-.54-3.63-1.63s-1.37-2.53-1.37-4.35v-1.23c0-1.19.21-2.24.64-3.14.42-.9 1.03-1.6 1.81-2.08s1.68-.73 2.71-.73c1.36 0 2.45.38 3.27 1.14s1.3 1.81 1.43 3.15h-1.7c-.15-1.02-.46-1.76-.95-2.22s-1.17-.69-2.05-.69c-1.08 0-1.92.4-2.54 1.2-.61.8-.92 1.93-.92 3.4v1.24c0 1.39.29 2.5.87 3.32s1.39 1.23 2.43 1.23c.94 0 1.66-.21 2.16-.64.5-.42.83-1.16 1-2.22h1.7ZM12.98 142.22c0-.93.18-1.77.55-2.51.37-.74.88-1.32 1.53-1.72.65-.4 1.4-.61 2.24-.61 1.29 0 2.34.45 3.14 1.34.8.9 1.2 2.09 1.2 3.58v.11c0 .93-.18 1.76-.53 2.49-.36.74-.86 1.31-1.52 1.72-.66.41-1.42.62-2.27.62-1.29 0-2.33-.45-3.13-1.34-.8-.9-1.2-2.08-1.2-3.56v-.11Zm1.63.19c0 1.05.24 1.9.73 2.54s1.14.96 1.96.96 1.48-.32 1.97-.97.73-1.55.73-2.72c0-1.04-.25-1.89-.74-2.54s-1.15-.97-1.97-.97-1.45.32-1.94.96-.74 1.55-.74 2.74ZM25.44 147.07h-1.63v-13.5h1.63v13.5ZM27.61 142.22c0-.93.18-1.77.55-2.51.37-.74.88-1.32 1.53-1.72.65-.4 1.4-.61 2.24-.61 1.29 0 2.34.45 3.14 1.34.8.9 1.2 2.09 1.2 3.58v.11c0 .93-.18 1.76-.53 2.49-.36.74-.86 1.31-1.52 1.72-.66.41-1.42.62-2.27.62-1.29 0-2.33-.45-3.13-1.34-.8-.9-1.2-2.08-1.2-3.56v-.11Zm1.63.19c0 1.05.24 1.9.73 2.54s1.14.96 1.96.96 1.48-.32 1.97-.97.73-1.55.73-2.72c0-1.04-.25-1.89-.74-2.54s-1.15-.97-1.97-.97-1.45.32-1.94.96-.74 1.55-.74 2.74ZM42.91 139.02c-.25-.04-.51-.06-.8-.06-1.07 0-1.79.45-2.17 1.36v6.75h-1.63v-9.51h1.58l.03 1.1c.53-.85 1.29-1.27 2.27-1.27.32 0 .56.04.72.12v1.51ZM49.94 144.55c0-.44-.17-.78-.5-1.02-.33-.24-.91-.45-1.73-.63s-1.48-.39-1.96-.63c-.48-.25-.84-.54-1.07-.88-.23-.34-.35-.74-.35-1.21 0-.78.33-1.44.99-1.98.66-.54 1.5-.81 2.53-.81 1.08 0 1.95.28 2.62.83s1.01 1.27 1.01 2.14h-1.63c0-.45-.19-.83-.57-1.15-.38-.32-.85-.48-1.43-.48s-1.05.13-1.39.39-.5.59-.5 1.01c0 .39.16.69.47.89s.87.39 1.68.57c.81.18 1.47.4 1.97.65s.88.56 1.12.91c.24.35.36.79.36 1.3 0 .85-.34 1.53-1.02 2.04s-1.56.77-2.65.77c-.76 0-1.44-.13-2.02-.4s-1.04-.65-1.38-1.13c-.33-.48-.5-1.01-.5-1.57h1.63c.03.54.25.98.65 1.3s.95.48 1.61.48c.62 0 1.11-.12 1.48-.37s.56-.58.56-1ZM62.73 139.02c-.25-.04-.51-.06-.8-.06-1.07 0-1.79.45-2.17 1.36v6.75h-1.63v-9.51h1.58l.03 1.1c.53-.85 1.29-1.27 2.27-1.27.32 0 .56.04.72.12v1.51ZM68.17 147.24c-1.29 0-2.34-.42-3.15-1.27s-1.21-1.98-1.21-3.4v-.3c0-.94.18-1.79.54-2.53.36-.74.86-1.32 1.51-1.74s1.35-.63 2.11-.63c1.24 0 2.2.41 2.88 1.22s1.03 1.98 1.03 3.5v.68h-6.44c.02.94.3 1.69.82 2.27.52.58 1.19.87 2 .87.57 0 1.06-.12 1.46-.35s.75-.54 1.05-.93l.99.77c-.8 1.22-1.99 1.84-3.59 1.84Zm-.2-8.53c-.66 0-1.21.24-1.65.72s-.72 1.15-.83 2.01h4.76v-.12c-.05-.83-.27-1.47-.67-1.92s-.94-.68-1.62-.68ZM81.8 142.42c0 1.45-.33 2.61-.99 3.5s-1.56 1.33-2.69 1.33-2.06-.37-2.72-1.1v4.58h-1.63v-13.17h1.49l.08 1.05c.66-.82 1.58-1.23 2.76-1.23s2.05.43 2.71 1.29 1 2.06 1 3.59v.15Zm-1.63-.18c0-1.07-.23-1.92-.69-2.54s-1.08-.93-1.88-.93c-.98 0-1.72.44-2.21 1.31v4.54c.49.87 1.23 1.3 2.23 1.3.78 0 1.4-.31 1.86-.93s.69-1.54.69-2.76ZM88.46 139.02c-.25-.04-.51-.06-.8-.06-1.07 0-1.79.45-2.17 1.36v6.75h-1.63v-9.51h1.58l.03 1.1c.53-.85 1.29-1.27 2.27-1.27.32 0 .56.04.72.12v1.51ZM93.9 147.24c-1.29 0-2.34-.42-3.15-1.27s-1.21-1.98-1.21-3.4v-.3c0-.94.18-1.79.54-2.53.36-.74.86-1.32 1.51-1.74s1.35-.63 2.11-.63c1.24 0 2.2.41 2.88 1.22s1.03 1.98 1.03 3.5v.68h-6.44c.02.94.3 1.69.82 2.27.52.58 1.19.87 2 .87.57 0 1.06-.12 1.46-.35s.75-.54 1.05-.93l.99.77c-.8 1.22-1.99 1.84-3.59 1.84Zm-.2-8.53c-.66 0-1.21.24-1.65.72s-.72 1.15-.83 2.01h4.76v-.12c-.05-.83-.27-1.47-.67-1.92s-.94-.68-1.62-.68ZM105.03 144.55c0-.44-.17-.78-.5-1.02-.33-.24-.91-.45-1.73-.63s-1.48-.39-1.96-.63c-.48-.25-.84-.54-1.07-.88-.23-.34-.35-.74-.35-1.21 0-.78.33-1.44.99-1.98.66-.54 1.5-.81 2.53-.81 1.08 0 1.95.28 2.62.83s1.01 1.27 1.01 2.14h-1.63c0-.45-.19-.83-.57-1.15-.38-.32-.85-.48-1.43-.48s-1.05.13-1.39.39-.5.59-.5 1.01c0 .39.16.69.47.89s.87.39 1.68.57c.81.18 1.47.4 1.97.65s.88.56 1.12.91c.24.35.36.79.36 1.3 0 .85-.34 1.53-1.02 2.04s-1.56.77-2.65.77c-.76 0-1.44-.13-2.02-.4s-1.04-.65-1.38-1.13c-.33-.48-.5-1.01-.5-1.57h1.63c.03.54.25.98.65 1.3s.95.48 1.61.48c.62 0 1.11-.12 1.48-.37s.56-.58.56-1ZM112.72 147.24c-1.29 0-2.34-.42-3.15-1.27s-1.21-1.98-1.21-3.4v-.3c0-.94.18-1.79.54-2.53.36-.74.86-1.32 1.51-1.74s1.35-.63 2.11-.63c1.24 0 2.2.41 2.88 1.22s1.03 1.98 1.03 3.5v.68h-6.44c.02.94.3 1.69.82 2.27.52.58 1.19.87 2 .87.57 0 1.06-.12 1.46-.35s.75-.54 1.05-.93l.99.77c-.8 1.22-1.99 1.84-3.59 1.84Zm-.2-8.53c-.66 0-1.21.24-1.65.72s-.72 1.15-.83 2.01h4.76v-.12c-.05-.83-.27-1.47-.67-1.92s-.94-.68-1.62-.68ZM119.84 137.56l.05 1.2c.73-.91 1.68-1.37 2.85-1.37 2.01 0 3.02 1.13 3.04 3.4v6.28h-1.63v-6.29c0-.69-.16-1.19-.47-1.52-.31-.33-.79-.49-1.44-.49-.53 0-.99.14-1.39.42s-.71.65-.93 1.11v6.78h-1.63v-9.51h1.54ZM130.44 135.26v2.3h1.78v1.26h-1.78v5.9c0 .38.08.67.24.86.16.19.43.29.81.29.19 0 .45-.04.77-.11v1.31c-.43.12-.84.17-1.25.17-.73 0-1.27-.22-1.64-.66s-.55-1.06-.55-1.87v-5.9h-1.73v-1.26h1.73v-2.3h1.63ZM140.78 135.26v2.3h1.78v1.26h-1.78v5.9c0 .38.08.67.24.86.16.19.43.29.81.29.19 0 .45-.04.77-.11v1.31c-.43.12-.84.17-1.25.17-.73 0-1.27-.22-1.64-.66s-.55-1.06-.55-1.87v-5.9h-1.73v-1.26h1.73v-2.3h1.63ZM146.08 138.71c.72-.88 1.66-1.33 2.81-1.33 2.01 0 3.02 1.13 3.04 3.4v6.28h-1.63v-6.29c0-.69-.16-1.19-.47-1.52-.31-.33-.79-.49-1.44-.49-.53 0-.99.14-1.39.42s-.71.65-.93 1.11v6.78h-1.63v-13.5h1.63v5.14ZM158.31 147.24c-1.29 0-2.34-.42-3.15-1.27s-1.21-1.98-1.21-3.4v-.3c0-.94.18-1.79.54-2.53.36-.74.86-1.32 1.51-1.74s1.35-.63 2.11-.63c1.24 0 2.2.41 2.88 1.22s1.03 1.98 1.03 3.5v.68h-6.44c.02.94.3 1.69.82 2.27.52.58 1.19.87 2 .87.57 0 1.06-.12 1.46-.35s.75-.54 1.05-.93l.99.77c-.8 1.22-1.99 1.84-3.59 1.84Zm-.2-8.53c-.66 0-1.21.24-1.65.72s-.72 1.15-.83 2.01h4.76v-.12c-.05-.83-.27-1.47-.67-1.92s-.94-.68-1.62-.68ZM169.16 147.07v-8.25h-1.5v-1.26h1.5v-.98c0-1.02.27-1.81.82-2.36s1.32-.83 2.31-.83c.38 0 .75.05 1.12.15l-.09 1.31c-.28-.05-.57-.08-.88-.08-.53 0-.93.15-1.22.46s-.43.75-.43 1.33v1h2.03v1.26h-2.03v8.25h-1.63ZM174.62 135.04c0-.26.08-.49.24-.67s.4-.27.72-.27.56.09.72.27.25.4.25.67-.08.48-.25.66-.4.26-.72.26-.56-.09-.72-.26-.24-.4-.24-.66Zm1.76 12.03h-1.63v-9.51h1.63v9.51ZM182.92 147.24c-1.29 0-2.34-.42-3.15-1.27s-1.21-1.98-1.21-3.4v-.3c0-.94.18-1.79.54-2.53.36-.74.86-1.32 1.51-1.74s1.35-.63 2.11-.63c1.24 0 2.2.41 2.88 1.22s1.03 1.98 1.03 3.5v.68h-6.44c.02.94.3 1.69.82 2.27.52.58 1.19.87 2 .87.57 0 1.06-.12 1.46-.35s.75-.54 1.05-.93l.99.77c-.8 1.22-1.99 1.84-3.59 1.84Zm-.2-8.53c-.66 0-1.21.24-1.65.72s-.72 1.15-.83 2.01H185v-.12c-.05-.83-.27-1.47-.67-1.92s-.94-.68-1.62-.68ZM190.28 147.07h-1.63v-13.5h1.63v13.5ZM192.49 142.23c0-1.46.35-2.63 1.04-3.52s1.6-1.33 2.72-1.33 2 .38 2.65 1.14v-4.96h1.63v13.5h-1.49l-.08-1.02c-.65.8-1.56 1.2-2.72 1.2s-2-.45-2.69-1.35c-.7-.9-1.04-2.08-1.04-3.53v-.12Zm1.63.18c0 1.08.22 1.92.67 2.53s1.06.91 1.85.91c1.03 0 1.78-.46 2.26-1.39v-4.37c-.49-.9-1.23-1.34-2.24-1.34-.8 0-1.42.31-1.86.92s-.67 1.53-.67 2.73ZM207.06 142.22c0-.93.18-1.77.55-2.51.37-.74.88-1.32 1.53-1.72.65-.4 1.4-.61 2.24-.61 1.29 0 2.34.45 3.14 1.34.8.9 1.2 2.09 1.2 3.58v.11c0 .93-.18 1.76-.53 2.49-.36.74-.86 1.31-1.52 1.72-.66.41-1.42.62-2.27.62-1.29 0-2.33-.45-3.13-1.34-.8-.9-1.2-2.08-1.2-3.56v-.11Zm1.63.19c0 1.05.24 1.9.73 2.54s1.14.96 1.96.96 1.48-.32 1.97-.97.73-1.55.73-2.72c0-1.04-.25-1.89-.74-2.54s-1.15-.97-1.97-.97-1.45.32-1.94.96-.74 1.55-.74 2.74ZM218.55 147.07v-8.25h-1.5v-1.26h1.5v-.98c0-1.02.27-1.81.82-2.36s1.32-.83 2.31-.83c.38 0 .75.05 1.12.15l-.09 1.31c-.28-.05-.57-.08-.88-.08-.53 0-.93.15-1.22.46s-.43.75-.43 1.33v1h2.03v1.26h-2.03v8.25h-1.63ZM234.33 147.07c-.09-.19-.17-.52-.23-1-.76.79-1.66 1.18-2.71 1.18-.94 0-1.71-.27-2.31-.8-.6-.53-.9-1.2-.9-2.02 0-.99.38-1.76 1.13-2.31.75-.55 1.81-.82 3.18-.82h1.58v-.75c0-.57-.17-1.02-.51-1.36s-.84-.51-1.5-.51c-.58 0-1.07.15-1.46.44s-.59.65-.59 1.06h-1.63c0-.47.17-.93.5-1.38s.79-.79 1.37-1.05 1.21-.39 1.9-.39c1.1 0 1.95.27 2.58.82s.94 1.3.97 2.26v4.38c0 .87.11 1.57.33 2.08v.14h-1.71Zm-2.7-1.24c.51 0 .99-.13 1.45-.4s.79-.61.99-1.03v-1.95h-1.27c-1.99 0-2.99.58-2.99 1.75 0 .51.17.91.51 1.2s.78.43 1.31.43ZM242.07 145.92c.58 0 1.09-.18 1.52-.53s.67-.79.72-1.32h1.54c-.03.54-.22 1.06-.56 1.56s-.81.88-1.38 1.18-1.19.44-1.83.44c-1.29 0-2.32-.43-3.09-1.3-.76-.86-1.15-2.05-1.15-3.55v-.27c0-.93.17-1.75.51-2.47s.83-1.28 1.46-1.68 1.39-.6 2.25-.6c1.07 0 1.95.32 2.66.96.71.64 1.08 1.47 1.13 2.49h-1.54c-.05-.62-.28-1.12-.7-1.52-.42-.4-.94-.59-1.55-.59-.83 0-1.47.3-1.92.89s-.68 1.45-.68 2.58v.31c0 1.1.23 1.94.68 2.53s1.1.89 1.93.89ZM249.88 135.26v2.3h1.78v1.26h-1.78v5.9c0 .38.08.67.24.86.16.19.43.29.81.29.19 0 .45-.04.77-.11v1.31c-.43.12-.84.17-1.25.17-.73 0-1.27-.22-1.64-.66s-.55-1.06-.55-1.87v-5.9h-1.73v-1.26h1.73v-2.3h1.63ZM253.56 135.04c0-.26.08-.49.24-.67s.4-.27.72-.27.56.09.72.27.25.4.25.67-.08.48-.25.66-.4.26-.72.26-.56-.09-.72-.26-.24-.4-.24-.66Zm1.76 12.03h-1.63v-9.51h1.63v9.51ZM261.06 144.86l2.36-7.3h1.66l-3.41 9.51h-1.24l-3.45-9.51h1.66l2.42 7.3ZM266.65 135.04c0-.26.08-.49.24-.67s.4-.27.72-.27.56.09.72.27.25.4.25.67-.08.48-.25.66-.4.26-.72.26-.56-.09-.72-.26-.24-.4-.24-.66Zm1.76 12.03h-1.63v-9.51h1.63v9.51ZM273.21 135.26v2.3h1.78v1.26h-1.78v5.9c0 .38.08.67.24.86.16.19.43.29.81.29.19 0 .45-.04.77-.11v1.31c-.43.12-.84.17-1.25.17-.73 0-1.27-.22-1.64-.66s-.55-1.06-.55-1.87v-5.9h-1.73v-1.26h1.73v-2.3h1.63ZM280 144.69l2.21-7.13h1.74l-3.82 10.98c-.59 1.58-1.53 2.37-2.82 2.37l-.31-.03-.61-.11v-1.32l.44.04c.55 0 .98-.11 1.29-.33.31-.22.56-.63.76-1.22l.36-.97-3.39-9.4h1.78l2.37 7.13ZM289.43 142.22c0-.93.18-1.77.55-2.51.37-.74.88-1.32 1.53-1.72.65-.4 1.4-.61 2.24-.61 1.29 0 2.34.45 3.14 1.34.8.9 1.2 2.09 1.2 3.58v.11c0 .93-.18 1.76-.53 2.49-.36.74-.86 1.31-1.52 1.72-.66.41-1.42.62-2.27.62-1.29 0-2.33-.45-3.13-1.34-.8-.9-1.2-2.08-1.2-3.56v-.11Zm1.63.19c0 1.05.24 1.9.73 2.54s1.14.96 1.96.96 1.48-.32 1.97-.97.73-1.55.73-2.72c0-1.04-.25-1.89-.74-2.54s-1.15-.97-1.97-.97-1.45.32-1.94.96-.74 1.55-.74 2.74ZM300.93 147.07v-8.25h-1.5v-1.26h1.5v-.98c0-1.02.27-1.81.82-2.36s1.32-.83 2.31-.83c.38 0 .75.05 1.12.15l-.09 1.31c-.28-.05-.57-.08-.88-.08-.53 0-.93.15-1.22.46s-.43.75-.43 1.33v1h2.03v1.26h-2.03v8.25h-1.63ZM313.04 135.26v2.3h1.78v1.26h-1.78v5.9c0 .38.08.67.24.86.16.19.43.29.81.29.19 0 .45-.04.77-.11v1.31c-.43.12-.84.17-1.25.17-.73 0-1.27-.22-1.64-.66s-.55-1.06-.55-1.87v-5.9h-1.73v-1.26h1.73v-2.3h1.63ZM318.34 138.71c.72-.88 1.66-1.33 2.81-1.33 2.01 0 3.02 1.13 3.04 3.4v6.28h-1.63v-6.29c0-.69-.16-1.19-.47-1.52-.31-.33-.79-.49-1.44-.49-.53 0-.99.14-1.39.42s-.71.65-.93 1.11v6.78h-1.63v-13.5h1.63v5.14ZM330.57 147.24c-1.29 0-2.34-.42-3.15-1.27s-1.21-1.98-1.21-3.4v-.3c0-.94.18-1.79.54-2.53.36-.74.86-1.32 1.51-1.74s1.35-.63 2.11-.63c1.24 0 2.2.41 2.88 1.22s1.03 1.98 1.03 3.5v.68h-6.44c.02.94.3 1.69.82 2.27.52.58 1.19.87 2 .87.57 0 1.06-.12 1.46-.35s.75-.54 1.05-.93l.99.77c-.8 1.22-1.99 1.84-3.59 1.84Zm-.2-8.53c-.66 0-1.21.24-1.65.72s-.72 1.15-.83 2.01h4.76v-.12c-.05-.83-.27-1.47-.67-1.92s-.94-.68-1.62-.68ZM340.76 139.02c-.25-.04-.51-.06-.8-.06-1.07 0-1.79.45-2.17 1.36v6.75h-1.63v-9.51h1.58l.03 1.1c.53-.85 1.29-1.27 2.27-1.27.32 0 .56.04.72.12v1.51ZM9.73 164.02c0 1.45-.33 2.61-.99 3.5s-1.56 1.33-2.69 1.33-2.06-.37-2.72-1.1v4.58H1.7v-13.17h1.49l.08 1.05c.66-.82 1.58-1.23 2.76-1.23s2.05.43 2.71 1.29 1 2.06 1 3.59v.15Zm-1.63-.18c0-1.07-.23-1.92-.69-2.54s-1.08-.93-1.88-.93c-.98 0-1.72.44-2.21 1.31v4.54c.49.87 1.23 1.3 2.23 1.3.78 0 1.4-.31 1.86-.93s.69-1.54.69-2.76ZM15.74 168.84c-1.29 0-2.34-.42-3.15-1.27s-1.21-1.98-1.21-3.4v-.3c0-.94.18-1.79.54-2.53.36-.74.86-1.32 1.51-1.74s1.35-.63 2.11-.63c1.24 0 2.2.41 2.88 1.22s1.03 1.98 1.03 3.5v.68h-6.44c.02.94.3 1.7.82 2.27.52.58 1.19.87 2 .87.57 0 1.06-.12 1.46-.35s.75-.54 1.05-.93l.99.77c-.8 1.22-1.99 1.84-3.59 1.84Zm-.2-8.53c-.66 0-1.21.24-1.65.72s-.72 1.15-.83 2.01h4.76v-.12c-.05-.83-.27-1.47-.67-1.92s-.94-.68-1.62-.68ZM25.93 160.62c-.25-.04-.51-.06-.8-.06-1.07 0-1.79.45-2.17 1.36v6.75h-1.63v-9.51h1.58l.03 1.1c.53-.85 1.29-1.27 2.27-1.27.32 0 .56.04.72.12v1.51ZM32.96 166.15c0-.44-.17-.78-.5-1.02-.33-.24-.91-.45-1.73-.63s-1.48-.39-1.96-.63c-.48-.25-.84-.54-1.07-.88-.23-.34-.35-.74-.35-1.21 0-.78.33-1.44.99-1.98.66-.54 1.5-.81 2.53-.81 1.08 0 1.95.28 2.62.83s1.01 1.27 1.01 2.14h-1.63c0-.45-.19-.83-.57-1.15-.38-.32-.85-.48-1.43-.48s-1.05.13-1.39.39-.5.59-.5 1.01c0 .39.16.69.47.89s.87.39 1.68.57c.81.18 1.47.4 1.97.65s.88.56 1.12.91c.24.36.36.79.36 1.3 0 .85-.34 1.53-1.02 2.04-.68.51-1.56.77-2.65.77-.76 0-1.44-.13-2.02-.4s-1.04-.65-1.38-1.13c-.33-.48-.5-1.01-.5-1.57h1.63c.03.54.25.98.65 1.3.41.32.95.48 1.61.48.62 0 1.11-.12 1.48-.37.37-.25.56-.58.56-1ZM36.27 163.83c0-.93.18-1.77.55-2.51.37-.74.88-1.32 1.53-1.72.65-.4 1.4-.61 2.24-.61 1.29 0 2.34.45 3.14 1.34.8.9 1.2 2.09 1.2 3.58v.11c0 .93-.18 1.76-.53 2.49-.36.74-.86 1.31-1.52 1.72-.66.41-1.42.62-2.27.62-1.29 0-2.33-.45-3.13-1.34-.8-.9-1.2-2.08-1.2-3.56v-.11Zm1.63.19c0 1.05.24 1.9.73 2.54s1.14.96 1.96.96 1.48-.32 1.97-.97c.49-.65.73-1.55.73-2.72 0-1.04-.25-1.89-.74-2.54s-1.15-.97-1.97-.97-1.45.32-1.94.96-.74 1.55-.74 2.74ZM48.5 159.16l.05 1.2c.73-.91 1.68-1.37 2.85-1.37 2.01 0 3.02 1.13 3.04 3.4v6.28h-1.63v-6.29c0-.69-.16-1.19-.47-1.52-.31-.33-.79-.49-1.44-.49-.53 0-.99.14-1.39.42s-.71.65-.93 1.11v6.78h-1.63v-9.51h1.54ZM67.22 168.67c-.09-.19-.17-.52-.23-1-.76.79-1.66 1.18-2.71 1.18-.94 0-1.71-.26-2.31-.79-.6-.53-.9-1.2-.9-2.02 0-.99.38-1.76 1.13-2.31.75-.55 1.81-.82 3.18-.82h1.58v-.75c0-.57-.17-1.02-.51-1.36s-.84-.51-1.5-.51c-.58 0-1.07.15-1.46.44s-.59.65-.59 1.06h-1.63c0-.47.17-.93.5-1.38s.79-.79 1.37-1.05 1.21-.39 1.9-.39c1.1 0 1.95.27 2.58.82s.94 1.3.97 2.26v4.38c0 .87.11 1.57.33 2.08v.14h-1.71Zm-2.7-1.24c.51 0 .99-.13 1.45-.4s.79-.61.99-1.03v-1.95h-1.27c-1.99 0-2.99.58-2.99 1.75 0 .51.17.91.51 1.2s.78.43 1.31.43ZM71.94 168.67v-8.25h-1.5v-1.26h1.5v-.98c0-1.02.27-1.81.82-2.36s1.32-.83 2.31-.83c.38 0 .75.05 1.12.15l-.09 1.31c-.28-.05-.57-.08-.88-.08-.53 0-.93.15-1.22.46s-.43.75-.43 1.33v1h2.03v1.26h-2.03v8.25h-1.63ZM79.6 156.86v2.3h1.78v1.26H79.6v5.91c0 .38.08.67.24.86s.43.29.81.29c.19 0 .45-.04.77-.11v1.31c-.43.12-.84.17-1.25.17-.73 0-1.27-.22-1.64-.66s-.55-1.06-.55-1.87v-5.9h-1.73v-1.26h1.73v-2.3h1.63ZM87.22 168.84c-1.29 0-2.34-.42-3.15-1.27s-1.21-1.98-1.21-3.4v-.3c0-.94.18-1.79.54-2.53.36-.74.86-1.32 1.51-1.74s1.35-.63 2.11-.63c1.24 0 2.2.41 2.88 1.22s1.03 1.98 1.03 3.5v.68h-6.44c.02.94.3 1.7.82 2.27.52.58 1.19.87 2 .87.57 0 1.06-.12 1.46-.35s.75-.54 1.05-.93l.99.77c-.8 1.22-1.99 1.84-3.59 1.84Zm-.2-8.53c-.66 0-1.21.24-1.65.72s-.72 1.15-.83 2.01h4.76v-.12c-.05-.83-.27-1.47-.67-1.92s-.94-.68-1.62-.68ZM97.41 160.62c-.25-.04-.51-.06-.8-.06-1.07 0-1.79.45-2.17 1.36v6.75h-1.63v-9.51h1.58l.03 1.1c.53-.85 1.29-1.27 2.27-1.27.32 0 .56.04.72.12v1.51ZM111.78 166.43l1.83-7.27h1.63l-2.77 9.51h-1.32l-2.31-7.21-2.25 7.21h-1.32l-2.76-9.51h1.62l1.87 7.12 2.21-7.12h1.31l2.26 7.27ZM118.51 160.31c.72-.88 1.66-1.33 2.81-1.33 2.01 0 3.02 1.13 3.04 3.4v6.28h-1.63v-6.29c0-.69-.16-1.19-.47-1.52-.31-.33-.79-.49-1.44-.49-.53 0-.99.14-1.39.42s-.71.65-.93 1.11v6.78h-1.63v-13.5h1.63v5.14ZM126.81 156.64c0-.26.08-.49.24-.67s.4-.27.72-.27.56.09.72.27.25.4.25.67-.08.48-.25.66-.4.26-.72.26-.56-.09-.72-.26-.24-.4-.24-.66Zm1.76 12.03h-1.63v-9.51h1.63v9.51ZM134.98 167.52c.58 0 1.09-.18 1.52-.53s.67-.79.72-1.32h1.54c-.03.54-.22 1.06-.56 1.56s-.81.88-1.38 1.18-1.19.44-1.83.44c-1.29 0-2.32-.43-3.09-1.3-.76-.86-1.15-2.05-1.15-3.55v-.27c0-.93.17-1.75.51-2.47s.83-1.28 1.46-1.68 1.39-.6 2.25-.6c1.07 0 1.95.32 2.66.96.71.64 1.08 1.47 1.13 2.49h-1.54c-.05-.62-.28-1.12-.7-1.52-.42-.4-.94-.59-1.55-.59-.83 0-1.47.3-1.92.89s-.68 1.45-.68 2.58v.31c0 1.1.23 1.94.68 2.53s1.1.89 1.93.89ZM142.21 160.31c.72-.88 1.66-1.33 2.81-1.33 2.01 0 3.02 1.13 3.04 3.4v6.28h-1.63v-6.29c0-.69-.16-1.19-.47-1.52-.31-.33-.79-.49-1.44-.49-.53 0-.99.14-1.39.42s-.71.65-.93 1.11v6.78h-1.63v-13.5h1.63v5.14ZM157.16 156.86v2.3h1.78v1.26h-1.78v5.91c0 .38.08.67.24.86s.43.29.81.29c.19 0 .45-.04.77-.11v1.31c-.43.12-.84.17-1.25.17-.73 0-1.27-.22-1.64-.66s-.55-1.06-.55-1.87v-5.9h-1.73v-1.26h1.73v-2.3h1.63ZM162.46 160.31c.72-.88 1.66-1.33 2.81-1.33 2.01 0 3.02 1.13 3.04 3.4v6.28h-1.63v-6.29c0-.69-.16-1.19-.47-1.52-.31-.33-.79-.49-1.44-.49-.53 0-.99.14-1.39.42s-.71.65-.93 1.11v6.78h-1.63v-13.5h1.63v5.14ZM174.7 168.84c-1.29 0-2.34-.42-3.15-1.27s-1.21-1.98-1.21-3.4v-.3c0-.94.18-1.79.54-2.53.36-.74.86-1.32 1.51-1.74s1.35-.63 2.11-.63c1.24 0 2.2.41 2.88 1.22s1.03 1.98 1.03 3.5v.68h-6.44c.02.94.3 1.7.82 2.27.52.58 1.19.87 2 .87.57 0 1.06-.12 1.46-.35s.75-.54 1.05-.93l.99.77c-.8 1.22-1.99 1.84-3.59 1.84Zm-.2-8.53c-.66 0-1.21.24-1.65.72s-.72 1.15-.83 2.01h4.76v-.12c-.05-.83-.27-1.47-.67-1.92s-.94-.68-1.62-.68ZM190.28 166.15c0-.44-.17-.78-.5-1.02-.33-.24-.91-.45-1.73-.63s-1.48-.39-1.96-.63c-.48-.25-.84-.54-1.07-.88-.23-.34-.35-.74-.35-1.21 0-.78.33-1.44.99-1.98.66-.54 1.5-.81 2.53-.81 1.08 0 1.95.28 2.62.83s1.01 1.27 1.01 2.14h-1.63c0-.45-.19-.83-.57-1.15-.38-.32-.85-.48-1.43-.48s-1.05.13-1.39.39-.5.59-.5 1.01c0 .39.16.69.47.89s.87.39 1.68.57c.81.18 1.47.4 1.97.65s.88.56 1.12.91c.24.36.36.79.36 1.3 0 .85-.34 1.53-1.02 2.04-.68.51-1.56.77-2.65.77-.76 0-1.44-.13-2.02-.4s-1.04-.65-1.38-1.13c-.33-.48-.5-1.01-.5-1.57h1.63c.03.54.25.98.65 1.3.41.32.95.48 1.61.48.62 0 1.11-.12 1.48-.37.37-.25.56-.58.56-1ZM196.23 156.86v2.3h1.78v1.26h-1.78v5.91c0 .38.08.67.24.86s.43.29.81.29c.19 0 .45-.04.77-.11v1.31c-.43.12-.84.17-1.25.17-.73 0-1.27-.22-1.64-.66s-.55-1.06-.55-1.87v-5.9h-1.73v-1.26h1.73v-2.3h1.63ZM204.5 160.62c-.25-.04-.51-.06-.8-.06-1.07 0-1.79.45-2.17 1.36v6.75h-1.63v-9.51h1.58l.03 1.1c.53-.85 1.29-1.27 2.27-1.27.32 0 .56.04.72.12v1.51ZM209.94 168.84c-1.29 0-2.34-.42-3.15-1.27s-1.21-1.98-1.21-3.4v-.3c0-.94.18-1.79.54-2.53.36-.74.86-1.32 1.51-1.74s1.35-.63 2.11-.63c1.24 0 2.2.41 2.88 1.22s1.03 1.98 1.03 3.5v.68h-6.44c.02.94.3 1.7.82 2.27.52.58 1.19.87 2 .87.57 0 1.06-.12 1.46-.35s.75-.54 1.05-.93l.99.77c-.8 1.22-1.99 1.84-3.59 1.84Zm-.2-8.53c-.66 0-1.21.24-1.65.72s-.72 1.15-.83 2.01h4.76v-.12c-.05-.83-.27-1.47-.67-1.92s-.94-.68-1.62-.68ZM219.48 168.84c-1.29 0-2.34-.42-3.15-1.27s-1.21-1.98-1.21-3.4v-.3c0-.94.18-1.79.54-2.53.36-.74.86-1.32 1.51-1.74s1.35-.63 2.11-.63c1.24 0 2.2.41 2.88 1.22s1.03 1.98 1.03 3.5v.68h-6.44c.02.94.3 1.7.82 2.27.52.58 1.19.87 2 .87.57 0 1.06-.12 1.46-.35s.75-.54 1.05-.93l.99.77c-.8 1.22-1.99 1.84-3.59 1.84Zm-.2-8.53c-.66 0-1.21.24-1.65.72s-.72 1.15-.83 2.01h4.76v-.12c-.05-.83-.27-1.47-.67-1.92s-.94-.68-1.62-.68ZM227.27 156.86v2.3h1.78v1.26h-1.78v5.91c0 .38.08.67.24.86s.43.29.81.29c.19 0 .45-.04.77-.11v1.31c-.43.12-.84.17-1.25.17-.73 0-1.27-.22-1.64-.66s-.55-1.06-.55-1.87v-5.9h-1.73v-1.26h1.73v-2.3h1.63ZM235.41 156.64c0-.26.08-.49.24-.67s.4-.27.72-.27.56.09.72.27.25.4.25.67-.08.48-.25.66-.4.26-.72.26-.56-.09-.72-.26-.24-.4-.24-.66Zm1.76 12.03h-1.63v-9.51h1.63v9.51ZM245.31 166.15c0-.44-.17-.78-.5-1.02-.33-.24-.91-.45-1.73-.63s-1.48-.39-1.96-.63c-.48-.25-.84-.54-1.07-.88-.23-.34-.35-.74-.35-1.21 0-.78.33-1.44.99-1.98.66-.54 1.5-.81 2.53-.81 1.08 0 1.95.28 2.62.83s1.01 1.27 1.01 2.14h-1.63c0-.45-.19-.83-.57-1.15-.38-.32-.85-.48-1.43-.48s-1.05.13-1.39.39-.5.59-.5 1.01c0 .39.16.69.47.89s.87.39 1.68.57c.81.18 1.47.4 1.97.65s.88.56 1.12.91c.24.36.36.79.36 1.3 0 .85-.34 1.53-1.02 2.04-.68.51-1.56.77-2.65.77-.76 0-1.44-.13-2.02-.4s-1.04-.65-1.38-1.13c-.33-.48-.5-1.01-.5-1.57h1.63c.03.54.25.98.65 1.3.41.32.95.48 1.61.48.62 0 1.11-.12 1.48-.37.37-.25.56-.58.56-1ZM255.05 159.16l.05 1.2c.73-.91 1.68-1.37 2.85-1.37 2.01 0 3.02 1.13 3.04 3.4v6.28h-1.63v-6.29c0-.69-.16-1.19-.47-1.52-.31-.33-.79-.49-1.44-.49-.53 0-.99.14-1.39.42s-.71.65-.93 1.11v6.78h-1.63v-9.51h1.54ZM269.31 168.67c-.09-.19-.17-.52-.23-1-.76.79-1.66 1.18-2.71 1.18-.94 0-1.71-.26-2.31-.79-.6-.53-.9-1.2-.9-2.02 0-.99.38-1.76 1.13-2.31.75-.55 1.81-.82 3.18-.82h1.58v-.75c0-.57-.17-1.02-.51-1.36s-.84-.51-1.5-.51c-.58 0-1.07.15-1.46.44s-.59.65-.59 1.06h-1.63c0-.47.17-.93.5-1.38s.79-.79 1.37-1.05 1.21-.39 1.9-.39c1.1 0 1.95.27 2.58.82s.94 1.3.97 2.26v4.38c0 .87.11 1.57.33 2.08v.14h-1.71Zm-2.7-1.24c.51 0 .99-.13 1.45-.4s.79-.61.99-1.03v-1.95h-1.27c-1.99 0-2.99.58-2.99 1.75 0 .51.17.91.51 1.2s.78.43 1.31.43ZM274.76 159.16l.04 1.05c.7-.82 1.64-1.23 2.82-1.23 1.33 0 2.24.51 2.72 1.53.32-.46.73-.83 1.24-1.11.51-.28 1.11-.42 1.8-.42 2.09 0 3.15 1.1 3.18 3.31v6.37h-1.63v-6.28c0-.68-.16-1.19-.47-1.52s-.83-.51-1.56-.51c-.6 0-1.1.18-1.5.54s-.63.85-.69 1.45v6.31h-1.63v-6.23c0-1.38-.68-2.07-2.03-2.07-1.07 0-1.8.45-2.19 1.36v6.94h-1.63v-9.51h1.54ZM292.95 168.84c-1.29 0-2.34-.42-3.15-1.27s-1.21-1.98-1.21-3.4v-.3c0-.94.18-1.79.54-2.53.36-.74.86-1.32 1.51-1.74s1.35-.63 2.11-.63c1.24 0 2.2.41 2.88 1.22s1.03 1.98 1.03 3.5v.68h-6.44c.02.94.3 1.7.82 2.27.52.58 1.19.87 2 .87.57 0 1.06-.12 1.46-.35s.75-.54 1.05-.93l.99.77c-.8 1.22-1.99 1.84-3.59 1.84Zm-.2-8.53c-.66 0-1.21.24-1.65.72s-.72 1.15-.83 2.01h4.76v-.12c-.05-.83-.27-1.47-.67-1.92s-.94-.68-1.62-.68ZM298.15 163.83c0-1.46.35-2.63 1.04-3.52s1.6-1.33 2.72-1.33 2 .38 2.65 1.14v-4.96h1.63v13.5h-1.49l-.08-1.02c-.65.8-1.56 1.2-2.72 1.2s-2-.45-2.69-1.35c-.7-.9-1.04-2.08-1.04-3.53v-.12Zm1.63.18c0 1.08.22 1.92.67 2.53s1.06.91 1.85.91c1.03 0 1.78-.46 2.26-1.39v-4.37c-.49-.9-1.23-1.34-2.24-1.34-.8 0-1.42.31-1.86.92s-.67 1.53-.67 2.73ZM308.73 167.82c0-.28.08-.52.25-.7.17-.19.42-.28.75-.28s.59.09.76.28.26.42.26.7-.09.5-.26.68-.43.27-.76.27-.58-.09-.75-.27a.953.953 0 0 1-.25-.68Z" style="fill:#36311f"/><path style="fill:none;stroke:#8b8d8e;stroke-linecap:round;stroke-width:1.2px" d="M699.1 194.32h-136"/><path d="M712.02 201.02h-1.63v-10.84l-3.28 1.2v-1.48l4.66-1.75h.25v12.86ZM717.53 194.61l.65-6.38h6.56v1.5h-5.18l-.39 3.49c.63-.37 1.34-.55 2.14-.55 1.17 0 2.09.39 2.78 1.16s1.03 1.81 1.03 3.12-.36 2.36-1.07 3.12c-.71.76-1.71 1.14-2.98 1.14-1.13 0-2.05-.31-2.77-.94s-1.12-1.49-1.22-2.6h1.54c.1.73.36 1.28.78 1.66s.98.56 1.67.56c.76 0 1.35-.26 1.78-.77.43-.52.65-1.23.65-2.14 0-.86-.23-1.54-.7-2.06-.46-.52-1.08-.78-1.86-.78-.71 0-1.27.16-1.67.47l-.43.35-1.3-.33Z"/><path style="fill:none;stroke:#8b8d8e;stroke-linecap:round;stroke-width:1.2px" d="M654.1 220.82h-91"/><path d="M666.02 227.52h-1.63v-10.84l-3.28 1.2v-1.48l4.66-1.75h.25v12.86ZM678.8 222.06c0 1.9-.33 3.32-.98 4.25s-1.67 1.39-3.05 1.39-2.38-.45-3.03-1.36-1-2.26-1.02-4.06v-2.17c0-1.88.33-3.28.98-4.19s1.67-1.37 3.06-1.37 2.39.44 3.04 1.32.98 2.24 1 4.08v2.11Zm-1.63-2.22c0-1.38-.19-2.38-.58-3.01s-1-.94-1.84-.94-1.44.31-1.82.94-.58 1.59-.59 2.89v2.6c0 1.38.2 2.4.6 3.06s1.01.99 1.82.99 1.4-.31 1.79-.93c.39-.62.59-1.6.61-2.94v-2.66Z"/><path style="fill:none;stroke:#8b8d8e;stroke-linecap:round;stroke-width:1.2px" d="M608.1 247.32h-45"/><path d="m618.53 247.61.65-6.38h6.56v1.5h-5.18l-.39 3.49c.63-.37 1.34-.55 2.14-.55 1.17 0 2.09.39 2.78 1.16s1.03 1.81 1.03 3.12-.36 2.36-1.07 3.12c-.71.76-1.71 1.14-2.98 1.14-1.13 0-2.05-.31-2.77-.94s-1.12-1.49-1.22-2.6h1.54c.1.73.36 1.28.78 1.66s.98.56 1.67.56c.76 0 1.35-.26 1.78-.77.43-.52.65-1.23.65-2.14 0-.86-.23-1.54-.7-2.06-.46-.52-1.08-.78-1.86-.78-.71 0-1.27.16-1.67.47l-.43.35-1.3-.33Z"/><path d="M13.1 199.87c.58 0 1.09-.18 1.52-.53s.67-.79.72-1.32h1.54c-.03.54-.22 1.06-.56 1.56s-.81.88-1.38 1.18-1.19.44-1.83.44c-1.29 0-2.32-.43-3.09-1.3s-1.15-2.05-1.15-3.55v-.27c0-.93.17-1.75.51-2.47s.83-1.28 1.46-1.68 1.39-.6 2.25-.6c1.07 0 1.95.32 2.66.96s1.08 1.47 1.13 2.49h-1.54c-.05-.62-.28-1.12-.7-1.52s-.94-.59-1.55-.59c-.83 0-1.47.3-1.92.89s-.68 1.45-.68 2.58v.31c0 1.1.23 1.94.68 2.53s1.1.89 1.93.89ZM24.58 200.08c-.63.74-1.56 1.12-2.79 1.12-1.01 0-1.79-.29-2.32-.88s-.8-1.46-.8-2.61v-6.19h1.63v6.14c0 1.44.59 2.16 1.76 2.16 1.24 0 2.07-.46 2.48-1.39v-6.92h1.63v9.51h-1.55l-.04-.94ZM30.4 201.02h-1.63v-13.5h1.63v13.5ZM35.21 189.21v2.3h1.78v1.26h-1.78v5.9c0 .38.08.67.24.86.16.19.43.29.81.29.19 0 .45-.04.77-.11v1.31c-.43.12-.84.17-1.25.17-.73 0-1.27-.22-1.64-.66s-.55-1.06-.55-1.87v-5.9h-1.73v-1.26h1.73v-2.3h1.63ZM44.75 200.08c-.63.74-1.56 1.12-2.79 1.12-1.01 0-1.79-.29-2.32-.88s-.8-1.46-.8-2.61v-6.19h1.63v6.14c0 1.44.59 2.16 1.76 2.16 1.24 0 2.07-.46 2.48-1.39v-6.92h1.63v9.51h-1.55l-.04-.94ZM53.4 192.97c-.25-.04-.51-.06-.8-.06-1.07 0-1.79.45-2.17 1.36v6.75H48.8v-9.51h1.58l.03 1.1c.53-.85 1.29-1.27 2.27-1.27.32 0 .56.04.72.12v1.51ZM58.84 201.2c-1.29 0-2.34-.42-3.15-1.27s-1.21-1.98-1.21-3.4v-.3c0-.94.18-1.79.54-2.53s.86-1.32 1.51-1.74 1.35-.63 2.1-.63c1.24 0 2.2.41 2.88 1.22s1.03 1.98 1.03 3.5v.68H56.1c.02.94.3 1.69.82 2.27s1.19.87 2 .87c.57 0 1.06-.12 1.46-.35s.75-.54 1.05-.93l.99.77c-.8 1.22-1.99 1.84-3.59 1.84Zm-.2-8.53c-.66 0-1.21.24-1.65.72s-.72 1.15-.83 2.01h4.76v-.12c-.05-.83-.27-1.47-.67-1.92s-.94-.68-1.62-.68ZM64.38 203.57l-.92-.63c.55-.77.84-1.56.86-2.37v-1.47h1.59v1.27c0 .59-.15 1.18-.44 1.78s-.65 1.07-1.09 1.42ZM77.96 198.5c0-.44-.17-.78-.5-1.02s-.91-.45-1.73-.63-1.48-.39-1.96-.63-.84-.54-1.07-.88-.35-.74-.35-1.21c0-.78.33-1.44.99-1.98s1.5-.81 2.53-.81c1.08 0 1.95.28 2.62.83s1.01 1.27 1.01 2.14h-1.63c0-.45-.19-.83-.57-1.15s-.85-.48-1.43-.48-1.05.13-1.39.39-.5.59-.5 1.01c0 .39.16.69.47.89s.87.39 1.68.57 1.47.4 1.97.65.88.56 1.12.91.36.79.36 1.3c0 .85-.34 1.53-1.02 2.04s-1.56.77-2.65.77c-.76 0-1.44-.13-2.02-.4s-1.04-.65-1.38-1.13-.5-1.01-.5-1.57h1.63c.03.54.25.98.65 1.3s.94.48 1.61.48c.62 0 1.11-.12 1.48-.37s.56-.58.56-1ZM85.52 199.87c.58 0 1.09-.18 1.52-.53s.67-.79.72-1.32h1.54c-.03.54-.22 1.06-.56 1.56s-.81.88-1.38 1.18-1.19.44-1.83.44c-1.29 0-2.32-.43-3.09-1.3s-1.15-2.05-1.15-3.55v-.27c0-.93.17-1.75.51-2.47s.83-1.28 1.46-1.68 1.39-.6 2.25-.6c1.07 0 1.95.32 2.66.96s1.08 1.47 1.13 2.49h-1.54c-.05-.62-.28-1.12-.7-1.52s-.94-.59-1.55-.59c-.83 0-1.47.3-1.92.89s-.68 1.45-.68 2.58v.31c0 1.1.23 1.94.68 2.53s1.1.89 1.93.89ZM91.13 188.99c0-.26.08-.49.24-.67s.4-.27.72-.27.56.09.72.27.25.4.25.67-.08.48-.25.66-.4.26-.72.26-.56-.09-.72-.26-.24-.4-.24-.66Zm1.76 12.03h-1.63v-9.51h1.63v9.51ZM99.44 201.2c-1.29 0-2.34-.42-3.15-1.27s-1.21-1.98-1.21-3.4v-.3c0-.94.18-1.79.54-2.53s.86-1.32 1.51-1.74 1.35-.63 2.1-.63c1.24 0 2.2.41 2.88 1.22s1.03 1.98 1.03 3.5v.68H96.7c.02.94.3 1.69.82 2.27s1.19.87 2 .87c.57 0 1.06-.12 1.46-.35s.75-.54 1.05-.93l.99.77c-.8 1.22-1.99 1.84-3.59 1.84Zm-.2-8.53c-.66 0-1.21.24-1.65.72s-.72 1.15-.83 2.01h4.76v-.12c-.05-.83-.27-1.47-.67-1.92s-.94-.68-1.62-.68ZM106.57 191.51l.05 1.2c.73-.91 1.68-1.37 2.85-1.37 2.01 0 3.02 1.13 3.04 3.4v6.28h-1.63v-6.29c0-.69-.16-1.19-.47-1.52s-.79-.49-1.44-.49c-.53 0-.99.14-1.39.42s-.71.65-.93 1.11v6.78h-1.63v-9.51h1.54ZM118.78 199.87c.58 0 1.09-.18 1.52-.53s.67-.79.72-1.32h1.54c-.03.54-.22 1.06-.56 1.56s-.81.88-1.38 1.18-1.19.44-1.83.44c-1.29 0-2.32-.43-3.09-1.3s-1.15-2.05-1.15-3.55v-.27c0-.93.17-1.75.51-2.47s.83-1.28 1.46-1.68 1.39-.6 2.25-.6c1.07 0 1.95.32 2.66.96s1.08 1.47 1.13 2.49h-1.54c-.05-.62-.28-1.12-.7-1.52s-.94-.59-1.55-.59c-.83 0-1.47.3-1.92.89s-.68 1.45-.68 2.58v.31c0 1.1.23 1.94.68 2.53s1.1.89 1.93.89ZM128.33 201.2c-1.29 0-2.34-.42-3.15-1.27s-1.21-1.98-1.21-3.4v-.3c0-.94.18-1.79.54-2.53s.86-1.32 1.51-1.74 1.35-.63 2.1-.63c1.24 0 2.2.41 2.88 1.22s1.03 1.98 1.03 3.5v.68h-6.44c.02.94.3 1.69.82 2.27s1.19.87 2 .87c.57 0 1.06-.12 1.46-.35s.75-.54 1.05-.93l.99.77c-.8 1.22-1.99 1.84-3.59 1.84Zm-.2-8.53c-.66 0-1.21.24-1.65.72s-.72 1.15-.83 2.01h4.76v-.12c-.05-.83-.27-1.47-.67-1.92s-.94-.68-1.62-.68ZM133.87 203.57l-.92-.63c.55-.77.84-1.56.86-2.37v-1.47h1.59v1.27c0 .59-.15 1.18-.44 1.78s-.65 1.07-1.09 1.42ZM147.78 201.02c-.09-.19-.17-.52-.23-1-.76.79-1.66 1.18-2.71 1.18-.94 0-1.71-.27-2.31-.8s-.9-1.2-.9-2.02c0-.99.38-1.76 1.13-2.31s1.81-.82 3.18-.82h1.58v-.75c0-.57-.17-1.02-.51-1.36s-.84-.51-1.5-.51c-.58 0-1.07.15-1.46.44s-.59.65-.59 1.06h-1.63c0-.47.17-.93.51-1.38s.79-.79 1.37-1.05 1.21-.39 1.9-.39c1.1 0 1.95.27 2.58.82s.94 1.3.97 2.26v4.38c0 .87.11 1.57.33 2.08v.14h-1.71Zm-2.7-1.24c.51 0 .99-.13 1.45-.4s.79-.61.99-1.03v-1.95h-1.27c-1.99 0-2.99.58-2.99 1.75 0 .51.17.91.51 1.2s.78.43 1.31.43ZM156.3 192.97c-.25-.04-.51-.06-.8-.06-1.07 0-1.79.45-2.17 1.36v6.75h-1.63v-9.51h1.58l.03 1.1c.53-.85 1.29-1.27 2.27-1.27.32 0 .56.04.72.12v1.51ZM160.44 189.21v2.3h1.78v1.26h-1.78v5.9c0 .38.08.67.24.86.16.19.43.29.81.29.19 0 .45-.04.77-.11v1.31c-.43.12-.84.17-1.25.17-.73 0-1.27-.22-1.64-.66s-.55-1.06-.55-1.87v-5.9h-1.73v-1.26h1.73v-2.3h1.63ZM169.65 198.5c0-.44-.17-.78-.5-1.02s-.91-.45-1.73-.63-1.48-.39-1.96-.63-.84-.54-1.07-.88-.35-.74-.35-1.21c0-.78.33-1.44.99-1.98s1.5-.81 2.53-.81c1.08 0 1.95.28 2.62.83s1.01 1.27 1.01 2.14h-1.63c0-.45-.19-.83-.57-1.15s-.85-.48-1.43-.48-1.05.13-1.39.39-.5.59-.5 1.01c0 .39.16.69.47.89s.87.39 1.68.57 1.47.4 1.97.65.88.56 1.12.91.36.79.36 1.3c0 .85-.34 1.53-1.02 2.04s-1.56.77-2.65.77c-.76 0-1.44-.13-2.02-.4s-1.04-.65-1.38-1.13-.5-1.01-.5-1.57h1.63c.03.54.25.98.65 1.3s.94.48 1.61.48c.62 0 1.11-.12 1.48-.37s.56-.58.56-1Z" style="fill:#33658a"/><path d="M17.32 222.77c0 1.45-.33 2.61-.99 3.5s-1.56 1.33-2.69 1.33-2.06-.37-2.72-1.1v4.58H9.29v-13.17h1.49l.08 1.05c.66-.82 1.58-1.23 2.76-1.23s2.05.43 2.71 1.29 1 2.06 1 3.59v.15Zm-1.63-.18c0-1.07-.23-1.92-.69-2.54s-1.08-.93-1.88-.93c-.98 0-1.72.44-2.21 1.31v4.54c.49.87 1.23 1.3 2.23 1.3.78 0 1.4-.31 1.86-.93s.69-1.54.69-2.76ZM18.96 222.58c0-.93.18-1.77.55-2.51s.88-1.32 1.53-1.72 1.4-.61 2.24-.61c1.29 0 2.34.45 3.14 1.34s1.2 2.09 1.2 3.58v.11c0 .93-.18 1.76-.53 2.49s-.86 1.31-1.52 1.72-1.42.62-2.27.62c-1.29 0-2.33-.45-3.13-1.34s-1.2-2.08-1.2-3.56v-.11Zm1.63.19c0 1.05.24 1.9.73 2.54s1.14.96 1.96.96 1.48-.32 1.97-.97.73-1.55.73-2.72c0-1.04-.25-1.89-.74-2.54s-1.15-.97-1.97-.97-1.45.32-1.94.96-.74 1.55-.74 2.74ZM31.42 227.42h-1.63v-13.5h1.63v13.5ZM34.03 215.39c0-.26.08-.49.24-.67s.4-.27.72-.27.56.09.72.27.25.4.25.67-.08.48-.25.66-.4.26-.72.26-.56-.09-.72-.26-.24-.4-.24-.66Zm1.76 12.03h-1.63v-9.51h1.63v9.51ZM40.6 215.61v2.3h1.78v1.26H40.6v5.9c0 .38.08.67.24.86.16.19.43.29.81.29.19 0 .45-.04.77-.11v1.31c-.43.12-.84.17-1.25.17-.73 0-1.27-.22-1.64-.66s-.55-1.06-.55-1.87v-5.9h-1.73v-1.26h1.73v-2.3h1.63ZM44.28 215.39c0-.26.08-.49.24-.67s.4-.27.72-.27.56.09.72.27.25.4.25.67-.08.48-.25.66-.4.26-.72.26-.56-.09-.72-.26-.24-.4-.24-.66Zm1.76 12.03h-1.63v-9.51h1.63v9.51ZM52.45 226.27c.58 0 1.09-.18 1.52-.53s.67-.79.72-1.32h1.54c-.03.54-.22 1.06-.56 1.56s-.81.88-1.38 1.18-1.19.44-1.83.44c-1.29 0-2.32-.43-3.09-1.3s-1.15-2.05-1.15-3.55v-.27c0-.93.17-1.75.51-2.47s.83-1.28 1.46-1.68 1.39-.6 2.25-.6c1.07 0 1.95.32 2.66.96s1.08 1.47 1.13 2.49h-1.54c-.05-.62-.28-1.12-.7-1.52s-.94-.59-1.55-.59c-.83 0-1.47.3-1.92.89s-.68 1.45-.68 2.58v.31c0 1.1.23 1.94.68 2.53s1.1.89 1.93.89ZM63.6 224.9c0-.44-.17-.78-.5-1.02s-.91-.45-1.73-.63-1.48-.39-1.96-.63-.84-.54-1.07-.88-.35-.74-.35-1.21c0-.78.33-1.44.99-1.98s1.5-.81 2.53-.81c1.08 0 1.95.28 2.62.83s1.01 1.27 1.01 2.14h-1.63c0-.45-.19-.83-.57-1.15s-.85-.48-1.43-.48-1.05.13-1.39.39-.5.59-.5 1.01c0 .39.16.69.47.89s.87.39 1.68.57 1.47.4 1.97.65.88.56 1.12.91.36.79.36 1.3c0 .85-.34 1.53-1.02 2.04s-1.56.77-2.65.77c-.76 0-1.44-.13-2.02-.4s-1.04-.65-1.38-1.13-.5-1.01-.5-1.57h1.63c.03.54.25.98.65 1.3s.94.48 1.61.48c.62 0 1.11-.12 1.48-.37s.56-.58.56-1ZM77.67 227.42c-.09-.19-.17-.52-.23-1-.76.79-1.66 1.18-2.71 1.18-.94 0-1.71-.27-2.31-.8s-.9-1.2-.9-2.02c0-.99.38-1.76 1.13-2.31s1.81-.82 3.18-.82h1.58v-.75c0-.57-.17-1.02-.51-1.36s-.84-.51-1.5-.51c-.58 0-1.07.15-1.46.44s-.59.65-.59 1.06h-1.63c0-.47.17-.93.51-1.38s.79-.79 1.37-1.05 1.21-.39 1.9-.39c1.1 0 1.95.27 2.58.82s.94 1.3.97 2.26v4.38c0 .87.11 1.57.33 2.08v.14h-1.71Zm-2.7-1.24c.51 0 .99-.13 1.45-.4s.79-.61.99-1.03v-1.95h-1.27c-1.99 0-2.99.58-2.99 1.75 0 .51.17.91.51 1.2s.78.43 1.31.43ZM83.13 217.91l.05 1.2c.73-.91 1.68-1.37 2.85-1.37 2.01 0 3.02 1.13 3.04 3.4v6.28h-1.63v-6.29c0-.69-.16-1.19-.47-1.52s-.79-.49-1.44-.49c-.53 0-.99.14-1.39.42s-.71.65-.93 1.11v6.78h-1.63v-9.51h1.54ZM91.12 222.59c0-1.46.35-2.63 1.04-3.52s1.6-1.33 2.72-1.33 2 .38 2.65 1.14v-4.96h1.63v13.5h-1.49l-.08-1.02c-.65.8-1.56 1.2-2.72 1.2s-2-.45-2.69-1.35-1.04-2.08-1.04-3.53v-.12Zm1.63.18c0 1.08.22 1.92.67 2.53s1.06.91 1.85.91c1.03 0 1.78-.46 2.26-1.39v-4.37c-.49-.9-1.23-1.34-2.24-1.34-.8 0-1.42.31-1.86.92s-.67 1.53-.67 2.73ZM105.74 222.59c0-1.48.34-2.66 1.03-3.54s1.59-1.31 2.72-1.31 2.07.41 2.72 1.23l.08-1.05h1.49v9.28c0 1.23-.36 2.2-1.09 2.91s-1.71 1.06-2.94 1.06c-.69 0-1.36-.15-2.01-.44s-1.16-.69-1.5-1.2l.84-.98c.7.86 1.55 1.29 2.56 1.29.79 0 1.41-.22 1.85-.67s.66-1.07.66-1.88v-.82c-.65.75-1.54 1.12-2.66 1.12s-2.01-.45-2.7-1.34-1.03-2.12-1.03-3.67Zm1.63.18c0 1.07.22 1.91.66 2.53s1.05.92 1.85.92c1.03 0 1.78-.47 2.26-1.4v-4.34c-.5-.91-1.25-1.36-2.24-1.36-.79 0-1.41.31-1.85.92s-.67 1.53-.67 2.73ZM115.8 222.58c0-.93.18-1.77.55-2.51s.88-1.32 1.53-1.72 1.4-.61 2.24-.61c1.29 0 2.34.45 3.14 1.34s1.2 2.09 1.2 3.58v.11c0 .93-.18 1.76-.53 2.49s-.86 1.31-1.52 1.72-1.42.62-2.27.62c-1.29 0-2.33-.45-3.13-1.34s-1.2-2.08-1.2-3.56v-.11Zm1.63.19c0 1.05.24 1.9.73 2.54s1.14.96 1.96.96 1.48-.32 1.97-.97.73-1.55.73-2.72c0-1.04-.25-1.89-.74-2.54s-1.15-.97-1.97-.97-1.45.32-1.94.96-.74 1.55-.74 2.74ZM129.5 225.22l2.36-7.3h1.66l-3.41 9.51h-1.24l-3.45-9.51h1.66l2.42 7.3ZM139.03 227.6c-1.29 0-2.34-.42-3.15-1.27s-1.21-1.98-1.21-3.4v-.3c0-.94.18-1.79.54-2.53s.86-1.32 1.51-1.74 1.35-.63 2.1-.63c1.24 0 2.2.41 2.88 1.22s1.03 1.98 1.03 3.5v.68h-6.44c.02.94.3 1.69.82 2.27s1.19.87 2 .87c.57 0 1.06-.12 1.46-.35s.75-.54 1.05-.93l.99.77c-.8 1.22-1.99 1.84-3.59 1.84Zm-.2-8.53c-.66 0-1.21.24-1.65.72s-.72 1.15-.83 2.01h4.76v-.12c-.05-.83-.27-1.47-.67-1.92s-.94-.68-1.62-.68ZM149.21 219.37c-.25-.04-.51-.06-.8-.06-1.07 0-1.79.45-2.17 1.36v6.75h-1.63v-9.51h1.58l.03 1.1c.53-.85 1.29-1.27 2.27-1.27.32 0 .56.04.72.12v1.51ZM152.24 217.91l.05 1.2c.73-.91 1.68-1.37 2.85-1.37 2.01 0 3.02 1.13 3.04 3.4v6.28h-1.63v-6.29c0-.69-.16-1.19-.47-1.52s-.79-.49-1.44-.49c-.53 0-.99.14-1.39.42s-.71.65-.93 1.11v6.78h-1.63v-9.51h1.54ZM162.17 217.91l.04 1.05c.7-.82 1.64-1.23 2.82-1.23 1.33 0 2.24.51 2.72 1.53.32-.46.73-.83 1.23-1.11s1.11-.42 1.8-.42c2.09 0 3.15 1.1 3.18 3.31v6.37h-1.63v-6.28c0-.68-.16-1.19-.47-1.52s-.83-.51-1.56-.51c-.6 0-1.1.18-1.5.54s-.63.85-.69 1.45v6.31h-1.63v-6.23c0-1.38-.68-2.07-2.03-2.07-1.07 0-1.8.45-2.19 1.36v6.94h-1.63v-9.51h1.54ZM180.36 227.6c-1.29 0-2.34-.42-3.15-1.27s-1.21-1.98-1.21-3.4v-.3c0-.94.18-1.79.54-2.53s.86-1.32 1.51-1.74 1.35-.63 2.1-.63c1.24 0 2.2.41 2.88 1.22s1.03 1.98 1.03 3.5v.68h-6.44c.02.94.3 1.69.82 2.27s1.19.87 2 .87c.57 0 1.06-.12 1.46-.35s.75-.54 1.05-.93l.99.77c-.8 1.22-1.99 1.84-3.59 1.84Zm-.2-8.53c-.66 0-1.21.24-1.65.72s-.72 1.15-.83 2.01h4.76v-.12c-.05-.83-.27-1.47-.67-1.92s-.94-.68-1.62-.68ZM187.49 217.91l.05 1.2c.73-.91 1.68-1.37 2.85-1.37 2.01 0 3.02 1.13 3.04 3.4v6.28h-1.63v-6.29c0-.69-.16-1.19-.47-1.52s-.79-.49-1.44-.49c-.53 0-.99.14-1.39.42s-.71.65-.93 1.11v6.78h-1.63v-9.51h1.54ZM198.09 215.61v2.3h1.78v1.26h-1.78v5.9c0 .38.08.67.24.86.16.19.43.29.81.29.19 0 .45-.04.77-.11v1.31c-.43.12-.84.17-1.25.17-.73 0-1.27-.22-1.64-.66s-.55-1.06-.55-1.87v-5.9h-1.73v-1.26h1.73v-2.3h1.63Z" style="fill:#86bbd8"/><path d="m10.82 244.31.04 1.05c.7-.82 1.64-1.23 2.82-1.23 1.33 0 2.24.51 2.72 1.53.32-.46.73-.83 1.23-1.11s1.11-.42 1.8-.42c2.09 0 3.15 1.1 3.18 3.31v6.37h-1.63v-6.28c0-.68-.16-1.19-.47-1.52s-.83-.51-1.56-.51c-.6 0-1.1.18-1.5.54s-.63.85-.69 1.45v6.31h-1.63v-6.23c0-1.38-.68-2.07-2.03-2.07-1.07 0-1.8.45-2.19 1.36v6.94H9.28v-9.51h1.54ZM25.07 241.79c0-.26.08-.49.24-.67s.4-.27.72-.27.56.09.72.27.25.4.25.67-.08.48-.25.66-.4.26-.72.26-.56-.09-.72-.26-.24-.4-.24-.66Zm1.76 12.03H25.2v-9.51h1.63v9.51ZM31.2 253.82h-1.63v-13.5h1.63v13.5ZM33.81 241.79c0-.26.08-.49.24-.67s.4-.27.72-.27.56.09.72.27.25.4.25.67-.08.48-.25.66-.4.26-.72.26-.56-.09-.72-.26-.24-.4-.24-.66Zm1.76 12.03h-1.63v-9.51h1.63v9.51ZM40.38 242.01v2.3h1.78v1.26h-1.78v5.9c0 .38.08.67.24.86.16.19.43.29.81.29.19 0 .45-.04.77-.11v1.31c-.43.12-.84.17-1.25.17-.73 0-1.27-.22-1.64-.66s-.55-1.06-.55-1.87v-5.9h-1.73v-1.26h1.73V242h1.63ZM49.92 253.82c-.09-.19-.17-.52-.23-1-.76.79-1.66 1.18-2.71 1.18-.94 0-1.71-.27-2.31-.8s-.9-1.2-.9-2.02c0-.99.38-1.76 1.13-2.31s1.81-.82 3.18-.82h1.58v-.75c0-.57-.17-1.02-.51-1.36s-.84-.51-1.5-.51c-.58 0-1.07.15-1.46.44s-.59.65-.59 1.06h-1.63c0-.47.17-.93.51-1.38s.79-.79 1.37-1.05 1.21-.39 1.9-.39c1.1 0 1.95.27 2.58.82s.94 1.3.97 2.26v4.38c0 .87.11 1.57.33 2.08v.14h-1.71Zm-2.7-1.24c.51 0 .99-.13 1.45-.4s.79-.61.99-1.03v-1.95h-1.27c-1.99 0-2.99.58-2.99 1.75 0 .51.17.91.51 1.2s.78.43 1.31.43ZM58.44 245.77c-.25-.04-.51-.06-.8-.06-1.07 0-1.79.45-2.17 1.36v6.75h-1.63v-9.51h1.58l.03 1.1c.53-.85 1.29-1.27 2.27-1.27.32 0 .56.04.72.12v1.51ZM63.04 251.44l2.21-7.13h1.74l-3.82 10.98c-.59 1.58-1.53 2.37-2.82 2.37l-.31-.03-.61-.11v-1.32l.44.04c.55 0 .98-.11 1.29-.33s.56-.63.76-1.22l.36-.97-3.39-9.4h1.78l2.37 7.13Z" style="fill:#758e4f"/><path d="M13.89 272.17c-.25-.04-.51-.06-.8-.06-1.07 0-1.79.45-2.17 1.36v6.75H9.29v-9.51h1.58l.03 1.1c.53-.85 1.29-1.27 2.27-1.27.32 0 .56.04.72.12v1.51ZM19.33 280.4c-1.29 0-2.34-.42-3.15-1.27s-1.21-1.98-1.21-3.4v-.3c0-.94.18-1.79.54-2.53s.86-1.32 1.51-1.74 1.35-.63 2.1-.63c1.24 0 2.2.41 2.88 1.22s1.03 1.98 1.03 3.5v.68h-6.44c.02.94.3 1.69.82 2.27s1.19.87 2 .87c.57 0 1.06-.12 1.46-.35s.75-.54 1.05-.93l.99.77c-.8 1.22-1.99 1.84-3.59 1.84Zm-.2-8.53c-.66 0-1.21.24-1.65.72s-.72 1.15-.83 2.01h4.76v-.12c-.05-.83-.27-1.47-.67-1.92s-.94-.68-1.62-.68ZM26.68 280.22h-1.63v-13.5h1.63v13.5ZM29.29 268.19c0-.26.08-.49.24-.67s.4-.27.72-.27.56.09.72.27.25.4.25.67-.08.48-.25.66-.4.26-.72.26-.56-.09-.72-.26-.24-.4-.24-.66Zm1.76 12.03h-1.63v-9.51h1.63v9.51ZM33.27 275.39c0-1.48.34-2.66 1.03-3.54s1.59-1.31 2.72-1.31 2.07.41 2.72 1.23l.08-1.05h1.49V280c0 1.23-.36 2.2-1.09 2.91s-1.71 1.06-2.94 1.06c-.69 0-1.36-.15-2.01-.44s-1.16-.69-1.5-1.2l.84-.98c.7.86 1.55 1.29 2.56 1.29.79 0 1.41-.22 1.85-.67s.66-1.07.66-1.88v-.82c-.65.75-1.54 1.12-2.66 1.12s-2.01-.45-2.7-1.34-1.03-2.12-1.03-3.67Zm1.63.18c0 1.07.22 1.91.66 2.53s1.05.92 1.85.92c1.03 0 1.78-.47 2.26-1.4v-4.34c-.5-.91-1.25-1.36-2.24-1.36-.79 0-1.41.31-1.85.92s-.67 1.53-.67 2.73ZM43.76 268.19c0-.26.08-.49.24-.67s.4-.27.72-.27.56.09.72.27.25.4.25.67-.08.48-.25.66-.4.26-.72.26-.56-.09-.72-.26-.24-.4-.24-.66Zm1.76 12.03h-1.63v-9.51h1.63v9.51ZM47.69 275.38c0-.93.18-1.77.55-2.51s.88-1.32 1.53-1.72 1.4-.61 2.24-.61c1.29 0 2.34.45 3.14 1.34s1.2 2.09 1.2 3.58v.11c0 .93-.18 1.76-.53 2.49s-.86 1.31-1.52 1.72-1.42.62-2.27.62c-1.29 0-2.33-.45-3.13-1.34s-1.2-2.08-1.2-3.56v-.11Zm1.63.19c0 1.05.24 1.9.73 2.54s1.14.96 1.96.96 1.48-.32 1.97-.97.73-1.55.73-2.72c0-1.04-.25-1.89-.74-2.54s-1.15-.97-1.97-.97-1.45.32-1.94.96-.74 1.55-.74 2.74ZM59.92 270.71l.05 1.2c.73-.91 1.68-1.37 2.85-1.37 2.01 0 3.02 1.13 3.04 3.4v6.28h-1.63v-6.29c0-.69-.16-1.19-.47-1.52s-.79-.49-1.44-.49c-.53 0-.99.14-1.39.42s-.71.65-.93 1.11v6.78h-1.63v-9.51h1.54Z" style="fill:#f6ae2d"/><path d="M8.86 301.78c0-.93.18-1.77.55-2.51s.88-1.32 1.53-1.72 1.4-.61 2.24-.61c1.29 0 2.34.45 3.14 1.34s1.2 2.09 1.2 3.58v.11c0 .93-.18 1.76-.53 2.49s-.86 1.31-1.52 1.72-1.42.62-2.27.62c-1.29 0-2.33-.45-3.13-1.34s-1.2-2.08-1.2-3.56v-.11Zm1.63.19c0 1.05.24 1.9.73 2.54s1.14.96 1.96.96 1.48-.32 1.97-.97.73-1.55.73-2.72c0-1.04-.25-1.89-.74-2.54s-1.15-.97-1.97-.97-1.45.32-1.94.96-.74 1.55-.74 2.74ZM21.76 294.81v2.3h1.78v1.26h-1.78v5.9c0 .38.08.67.24.86.16.19.43.29.81.29.19 0 .45-.04.77-.11v1.31c-.43.12-.84.17-1.25.17-.73 0-1.27-.22-1.64-.66s-.55-1.06-.55-1.87v-5.9h-1.73v-1.26h1.73v-2.3h1.63ZM27.06 298.26c.72-.88 1.66-1.33 2.81-1.33 2.01 0 3.02 1.13 3.04 3.4v6.28h-1.63v-6.29c0-.69-.16-1.19-.47-1.52s-.79-.49-1.44-.49c-.53 0-.99.14-1.39.42s-.71.65-.93 1.11v6.78h-1.63v-13.5h1.63v5.14ZM39.3 306.8c-1.29 0-2.34-.42-3.15-1.27s-1.21-1.98-1.21-3.4v-.3c0-.94.18-1.79.54-2.53s.86-1.32 1.51-1.74 1.35-.63 2.1-.63c1.24 0 2.2.41 2.88 1.22s1.03 1.98 1.03 3.5v.68h-6.44c.02.94.3 1.69.82 2.27s1.19.87 2 .87c.57 0 1.06-.12 1.46-.35s.75-.54 1.05-.93l.99.77c-.8 1.22-1.99 1.84-3.59 1.84Zm-.2-8.53c-.66 0-1.21.24-1.65.72s-.72 1.15-.83 2.01h4.76v-.12c-.05-.83-.27-1.47-.67-1.92s-.94-.68-1.62-.68ZM49.48 298.57c-.25-.04-.51-.06-.8-.06-1.07 0-1.79.45-2.17 1.36v6.75h-1.63v-9.51h1.58l.03 1.1c.53-.85 1.29-1.27 2.27-1.27.32 0 .56.04.72.12v1.51Z" style="fill:#f26419"/><path d="m10.83 323.51.05 1.2c.73-.91 1.68-1.37 2.85-1.37 2.01 0 3.02 1.13 3.04 3.4v6.28h-1.63v-6.29c0-.69-.16-1.19-.47-1.52s-.79-.49-1.44-.49c-.53 0-.99.14-1.39.42s-.71.65-.93 1.11v6.78H9.28v-9.51h1.54ZM18.79 328.18c0-.93.18-1.77.55-2.51s.88-1.32 1.53-1.72 1.4-.61 2.24-.61c1.29 0 2.34.45 3.14 1.34s1.2 2.09 1.2 3.58v.11c0 .93-.18 1.76-.53 2.49s-.86 1.31-1.52 1.72-1.42.62-2.27.62c-1.29 0-2.33-.45-3.13-1.34s-1.2-2.08-1.2-3.56v-.11Zm1.63.19c0 1.05.24 1.9.73 2.54s1.14.96 1.96.96 1.48-.32 1.97-.97.73-1.55.73-2.72c0-1.04-.25-1.89-.74-2.54s-1.15-.97-1.97-.97-1.45.32-1.94.96-.74 1.55-.74 2.74ZM31.03 323.51l.05 1.2c.73-.91 1.68-1.37 2.85-1.37 2.01 0 3.02 1.13 3.04 3.4v6.28h-1.63v-6.29c0-.69-.16-1.19-.47-1.52s-.79-.49-1.44-.49c-.53 0-.99.14-1.39.42s-.71.65-.93 1.11v6.78h-1.63v-9.51h1.54ZM49.75 333.02c-.09-.19-.17-.52-.23-1-.76.79-1.66 1.18-2.71 1.18-.94 0-1.71-.27-2.31-.8s-.9-1.2-.9-2.02c0-.99.38-1.76 1.13-2.31s1.81-.82 3.18-.82h1.58v-.75c0-.57-.17-1.02-.51-1.36s-.84-.51-1.5-.51c-.58 0-1.07.15-1.46.44s-.59.65-.59 1.06H43.8c0-.47.17-.93.51-1.38s.79-.79 1.37-1.05 1.21-.39 1.9-.39c1.1 0 1.95.27 2.58.82s.94 1.3.97 2.26v4.38c0 .87.11 1.57.33 2.08v.14h-1.71Zm-2.7-1.24c.51 0 .99-.13 1.45-.4s.79-.61.99-1.03v-1.95h-1.27c-1.99 0-2.99.58-2.99 1.75 0 .51.17.91.51 1.2s.78.43 1.31.43ZM56.67 330.82l2.36-7.3h1.66l-3.41 9.51h-1.24l-3.45-9.51h1.66l2.42 7.3ZM67.99 333.02c-.09-.19-.17-.52-.23-1-.76.79-1.66 1.18-2.71 1.18-.94 0-1.71-.27-2.31-.8s-.9-1.2-.9-2.02c0-.99.38-1.76 1.13-2.31s1.81-.82 3.18-.82h1.58v-.75c0-.57-.17-1.02-.51-1.36s-.84-.51-1.5-.51c-.58 0-1.07.15-1.46.44s-.59.65-.59 1.06h-1.63c0-.47.17-.93.51-1.38s.79-.79 1.37-1.05 1.21-.39 1.9-.39c1.1 0 1.95.27 2.58.82s.94 1.3.97 2.26v4.38c0 .87.11 1.57.33 2.08v.14h-1.71Zm-2.7-1.24c.51 0 .99-.13 1.45-.4s.79-.61.99-1.03v-1.95h-1.27c-1.99 0-2.99.58-2.99 1.75 0 .51.17.91.51 1.2s.78.43 1.31.43ZM71.92 320.99c0-.26.08-.49.24-.67s.4-.27.72-.27.56.09.72.27.25.4.25.67-.08.48-.25.66-.4.26-.72.26-.56-.09-.72-.26-.24-.4-.24-.66Zm1.76 12.03h-1.63v-9.51h1.63v9.51ZM78.05 333.02h-1.63v-13.5h1.63v13.5ZM86.52 333.02c-.09-.19-.17-.52-.23-1-.76.79-1.66 1.18-2.71 1.18-.94 0-1.71-.27-2.31-.8s-.9-1.2-.9-2.02c0-.99.38-1.76 1.13-2.31s1.81-.82 3.18-.82h1.58v-.75c0-.57-.17-1.02-.51-1.36s-.84-.51-1.5-.51c-.58 0-1.07.15-1.46.44s-.59.65-.59 1.06h-1.63c0-.47.17-.93.51-1.38s.79-.79 1.37-1.05 1.21-.39 1.9-.39c1.1 0 1.95.27 2.58.82s.94 1.3.97 2.26v4.38c0 .87.11 1.57.33 2.08v.14h-1.71Zm-2.7-1.24c.51 0 .99-.13 1.45-.4s.79-.61.99-1.03v-1.95h-1.27c-1.99 0-2.99.58-2.99 1.75 0 .51.17.91.51 1.2s.78.43 1.31.43ZM98.49 328.37c0 1.45-.33 2.62-1 3.5s-1.56 1.32-2.69 1.32c-1.2 0-2.13-.42-2.79-1.27l-.08 1.1h-1.49v-13.5h1.63v5.04c.66-.81 1.56-1.22 2.72-1.22s2.06.44 2.72 1.31.99 2.07.99 3.59v.14Zm-1.63-.18c0-1.11-.21-1.96-.64-2.57s-1.04-.91-1.85-.91c-1.07 0-1.84.5-2.31 1.49v4.11c.5 1 1.27 1.49 2.33 1.49.78 0 1.39-.3 1.82-.91s.65-1.51.65-2.72ZM102.3 333.02h-1.63v-13.5h1.63v13.5ZM108.85 333.2c-1.29 0-2.34-.42-3.15-1.27s-1.21-1.98-1.21-3.4v-.3c0-.94.18-1.79.54-2.53s.86-1.32 1.51-1.74 1.35-.63 2.1-.63c1.24 0 2.2.41 2.88 1.22s1.03 1.98 1.03 3.5v.68h-6.44c.02.94.3 1.69.82 2.27s1.19.87 2 .87c.57 0 1.06-.12 1.46-.35s.75-.54 1.05-.93l.99.77c-.8 1.22-1.99 1.84-3.59 1.84Zm-.2-8.53c-.66 0-1.21.24-1.65.72s-.72 1.15-.83 2.01h4.76v-.12c-.05-.83-.27-1.47-.67-1.92s-.94-.68-1.62-.68Z" style="fill:#8b8d8e"/></svg>